Newsreader-CaptionExtraBoldItalic.ufo
<glyph name="ampersand" format="2">
  <advance width="1769"/>
  <unicode hex="0026"/>
  <outline>
    <contour>
      <point x="1261" y="300" type="line"/>
      <point x="1384" y="411"/>
      <point x="1513" y="530"/>
      <point x="1680" y="732" type="curve"/>
      <point x="1816" y="762" type="line"/>
      <point x="1847" y="864" type="line"/>
      <point x="1287" y="864" type="line"/>
      <point x="1255" y="762" type="line"/>
      <point x="1377" y="732" type="line"/>
      <point x="1329" y="489"/>
      <point x="1286" y="388"/>
      <point x="1233" y="330" type="curve"/>
      <point x="1019" y="207" type="line"/>
      <point x="966" y="192"/>
      <point x="908" y="185"/>
      <point x="845" y="185" type="curve" smooth="yes"/>
      <point x="634" y="185"/>
      <point x="572" y="274"/>
      <point x="572" y="469" type="curve" smooth="yes"/>
      <point x="572" y="557"/>
      <point x="585" y="628"/>
      <point x="625" y="710" type="curve"/>
      <point x="1005" y="889" type="line"/>
      <point x="1422" y="906"/>
      <point x="1561" y="1008"/>
      <point x="1561" y="1194" type="curve" smooth="yes"/>
      <point x="1561" y="1351"/>
      <point x="1450" y="1444"/>
      <point x="1084" y="1444" type="curve" smooth="yes"/>
      <point x="622" y="1444"/>
      <point x="464" y="1284"/>
      <point x="464" y="1070" type="curve" smooth="yes"/>
      <point x="464" y="964"/>
      <point x="484" y="900"/>
      <point x="602" y="695" type="curve" smooth="yes"/>
      <point x="1002" y="0" type="line"/>
      <point x="1560" y="0" type="line"/>
      <point x="1592" y="103" type="line"/>
      <point x="1462" y="166" type="line"/>
      <point x="1001" y="945" type="line" smooth="yes"/>
      <point x="942" y="1044"/>
      <point x="927" y="1088"/>
      <point x="927" y="1145" type="curve" smooth="yes"/>
      <point x="927" y="1237"/>
      <point x="970" y="1278"/>
      <point x="1047" y="1278" type="curve" smooth="yes"/>
      <point x="1103" y="1278"/>
      <point x="1136" y="1254"/>
      <point x="1136" y="1197" type="curve" smooth="yes"/>
      <point x="1136" y="1085"/>
      <point x="1089" y="991"/>
      <point x="975" y="911" type="curve"/>
      <point x="626" y="747" type="line"/>
      <point x="183" y="682"/>
      <point x="59" y="560"/>
      <point x="59" y="318" type="curve" smooth="yes"/>
      <point x="59" y="86"/>
      <point x="197" y="-30"/>
      <point x="534" y="-30" type="curve" smooth="yes"/>
      <point x="715" y="-30"/>
      <point x="844" y="20"/>
      <point x="1059" y="173" type="curve"/>
    </contour>
  </outline>
</glyph>
<glyph name="asterisk" format="2">
  <advance width="1005"/>
  <unicode hex="002A"/>
  <outline>
    <contour>
      <point x="889.0" y="730.0" type="line"/>
      <point x="822.0" y="950.0" type="line"/>
      <point x="1048.0" y="989.0" type="line"/>
      <point x="1034.0" y="1174.0" type="line"/>
      <point x="803.0" y="1177.0" type="line"/>
      <point x="836.0" y="1405.0" type="line"/>
      <point x="656.0" y="1448.0" type="line"/>
      <point x="583.0" y="1230.0" type="line"/>
      <point x="375.0" y="1331.0" type="line"/>
      <point x="279.0" y="1174.0" type="line"/>
      <point x="463.0" y="1036.0" type="line"/>
      <point x="303.0" y="871.0" type="line"/>
      <point x="422.0" y="730.0" type="line"/>
      <point x="612.0" y="862.0" type="line"/>
      <point x="719.0" y="659.0" type="line"/>
    </contour>
  </outline>
</glyph>
<glyph name="plus" format="2">
  <advance width="1200"/>
  <unicode hex="002B"/>
  <outline>
    <contour>
      <point x="333.0" y="62.0" type="line"/>
      <point x="588.0" y="62.0" type="line"/>
      <point x="869.0" y="982.0" type="line"/>
      <point x="614.0" y="982.0" type="line"/>
    </contour>
    <contour>
      <point x="205.0" y="656.0" type="line"/>
      <point x="123.0" y="388.0" type="line"/>
      <point x="997.0" y="388.0" type="line"/>
      <point x="1079.0" y="656.0" type="line"/>
    </contour>
  </outline>
</glyph>
<glyph name="period" format="2">
  <advance width="685"/>
  <unicode hex="002E"/>
  <outline>
    <contour>
      <point x="336.0" y="460.0" type="curve"/>
      <point x="126.0" y="460.0"/>
      <point x="2.0" y="318.0"/>
      <point x="2.0" y="144.0" type="curve" smooth="yes"/>
      <point x="2.0" y="34.0"/>
      <point x="67.0" y="-30.0"/>
      <point x="198.0" y="-30.0" type="curve"/>
      <point x="408.0" y="-30.0"/>
      <point x="532.0" y="112.0"/>
      <point x="532.0" y="286.0" type="curve" smooth="yes"/>
      <point x="532.0" y="396.0"/>
      <point x="467.0" y="460.0"/>
    </contour>
  </outline>
</glyph>
<glyph name="zero" format="2">
  <advance width="1550"/>
  <unicode hex="0030"/>
  <outline>
    <contour>
      <point x="580.0" y="408.0" type="curve" smooth="yes"/>
      <point x="580.0" y="731.0"/>
      <point x="730.0" y="1177.0"/>
      <point x="964.0" y="1177.0" type="curve" smooth="yes"/>
      <point x="1044.0" y="1177.0"/>
      <point x="1083.0" y="1134.0"/>
      <point x="1083.0" y="1006.0" type="curve" smooth="yes"/>
      <point x="1083.0" y="683.0"/>
      <point x="933.0" y="237.0"/>
      <point x="699.0" y="237.0" type="curve" smooth="yes"/>
      <point x="619.0" y="237.0"/>
      <point x="580.0" y="280.0"/>
    </contour>
    <contour>
      <point x="980.0" y="1444.0" type="curve" smooth="yes"/>
      <point x="292.0" y="1444.0"/>
      <point x="116.0" y="832.0"/>
      <point x="116.0" y="492.0" type="curve" smooth="yes"/>
      <point x="116.0" y="192.0"/>
      <point x="267.0" y="-30.0"/>
      <point x="683.0" y="-30.0" type="curve" smooth="yes"/>
      <point x="1371.0" y="-30.0"/>
      <point x="1547.0" y="582.0"/>
      <point x="1547.0" y="922.0" type="curve" smooth="yes"/>
      <point x="1547.0" y="1222.0"/>
      <point x="1396.0" y="1444.0"/>
    </contour>
  </outline>
</glyph>
<glyph name="question" format="2">
  <advance width="1503"/>
  <unicode hex="003F"/>
  <outline>
    <contour>
      <point x="693.0" y="408.0" type="curve" smooth="yes"/>
      <point x="459.0" y="408.0"/>
      <point x="370.0" y="280.0"/>
      <point x="370.0" y="130.0" type="curve" smooth="yes"/>
      <point x="370.0" y="29.0"/>
      <point x="433.0" y="-30.0"/>
      <point x="559.0" y="-30.0" type="curve" smooth="yes"/>
      <point x="793.0" y="-30.0"/>
      <point x="882.0" y="98.0"/>
      <point x="882.0" y="248.0" type="curve" smooth="yes"/>
      <point x="882.0" y="349.0"/>
      <point x="819.0" y="408.0"/>
    </contour>
    <contour>
      <point x="848.0" y="1444.0" type="curve" smooth="yes"/>
      <point x="418.0" y="1444.0"/>
      <point x="262.0" y="1331.0"/>
      <point x="262.0" y="1158.0" type="curve" smooth="yes"/>
      <point x="262.0" y="1052.0"/>
      <point x="339.0" y="977.0"/>
      <point x="453.0" y="977.0" type="curve" smooth="yes"/>
      <point x="491.0" y="977.0"/>
      <point x="586.0" y="1173.0"/>
      <point x="832.0" y="1173.0" type="curve" smooth="yes"/>
      <point x="986.0" y="1173.0"/>
      <point x="1058.0" y="1114.0"/>
      <point x="1058.0" y="1008.0" type="curve" smooth="yes"/>
      <point x="1058.0" y="887.0"/>
      <point x="975.0" y="835.0"/>
      <point x="644.0" y="858.0" type="curve"/>
      <point x="568.0" y="524.0" type="line"/>
      <point x="878.0" y="524.0" type="line"/>
      <point x="1009.0" y="718.0" type="line"/>
      <point x="838.0" y="630.0" type="line"/>
      <point x="1348.0" y="589.0"/>
      <point x="1542.0" y="740.0"/>
      <point x="1542.0" y="998.0" type="curve" smooth="yes"/>
      <point x="1542.0" y="1220.0"/>
      <point x="1359.0" y="1444.0"/>
    </contour>
  </outline>
</glyph>
<glyph name="at" format="2">
  <advance width="1981"/>
  <unicode hex="0040"/>
  <outline>
    <contour>
      <point x="1527.0" y="303.0" type="curve" smooth="yes"/>
      <point x="1455.0" y="303.0"/>
      <point x="1424.0" y="335.0"/>
      <point x="1424.0" y="402.0" type="curve" smooth="yes"/>
      <point x="1424.0" y="433.0"/>
      <point x="1429.0" y="469.0"/>
      <point x="1445.0" y="519.0" type="curve" smooth="yes"/>
      <point x="1591.0" y="1024.0" type="line"/>
      <point x="1302.0" y="1024.0" type="line"/>
      <point x="1182.0" y="851.0" type="line"/>
      <point x="1136.0" y="733.0" type="line" smooth="yes"/>
      <point x="1063.0" y="536.0"/>
      <point x="976.0" y="405.0"/>
      <point x="910.0" y="405.0" type="curve" smooth="yes"/>
      <point x="877.0" y="405.0"/>
      <point x="859.0" y="424.0"/>
      <point x="859.0" y="467.0" type="curve" smooth="yes"/>
      <point x="859.0" y="614.0"/>
      <point x="1013.0" y="846.0"/>
      <point x="1114.0" y="846.0" type="curve" smooth="yes"/>
      <point x="1164.0" y="846.0"/>
      <point x="1178.0" y="824.0"/>
      <point x="1205.0" y="758.0" type="curve"/>
      <point x="1227.0" y="801.0" type="line"/>
      <point x="1180.0" y="967.0"/>
      <point x="1100.0" y="1047.0"/>
      <point x="983.0" y="1047.0" type="curve" smooth="yes"/>
      <point x="727.0" y="1047.0"/>
      <point x="463.0" y="727.0"/>
      <point x="463.0" y="427.0" type="curve" smooth="yes"/>
      <point x="463.0" y="266.0"/>
      <point x="567.0" y="157.0"/>
      <point x="723.0" y="157.0" type="curve" smooth="yes"/>
      <point x="883.0" y="157.0"/>
      <point x="965.0" y="238.0"/>
      <point x="1124.0" y="532.0" type="curve"/>
      <point x="1152.0" y="532.0" type="line"/>
      <point x="1135.0" y="483.0" type="line" smooth="yes"/>
      <point x="1123.0" y="444.0"/>
      <point x="1116.0" y="407.0"/>
      <point x="1116.0" y="373.0" type="curve" smooth="yes"/>
      <point x="1116.0" y="227.0"/>
      <point x="1213.0" y="141.0"/>
      <point x="1431.0" y="141.0" type="curve" smooth="yes"/>
      <point x="1742.0" y="141.0"/>
      <point x="1989.0" y="416.0"/>
      <point x="1989.0" y="835.0" type="curve" smooth="yes"/>
      <point x="1989.0" y="1207.0"/>
      <point x="1710.0" y="1444.0"/>
      <point x="1232.0" y="1444.0" type="curve" smooth="yes"/>
      <point x="478.0" y="1444.0"/>
      <point x="95.0" y="991.0"/>
      <point x="95.0" y="402.0" type="curve" smooth="yes"/>
      <point x="95.0" y="-26.0"/>
      <point x="363.0" y="-272.0"/>
      <point x="897.0" y="-272.0" type="curve" smooth="yes"/>
      <point x="1156.0" y="-272.0"/>
      <point x="1384.0" y="-214.0"/>
      <point x="1617.0" y="-94.0" type="curve"/>
      <point x="1569.0" y="8.0" type="line"/>
      <point x="1353.0" y="-98.0"/>
      <point x="1141.0" y="-151.0"/>
      <point x="962.0" y="-151.0" type="curve" smooth="yes"/>
      <point x="484.0" y="-151.0"/>
      <point x="250.0" y="53.0"/>
      <point x="250.0" y="429.0" type="curve" smooth="yes"/>
      <point x="250.0" y="959.0"/>
      <point x="600.0" y="1332.0"/>
      <point x="1204.0" y="1332.0" type="curve" smooth="yes"/>
      <point x="1633.0" y="1332.0"/>
      <point x="1845.0" y="1135.0"/>
      <point x="1845.0" y="813.0" type="curve" smooth="yes"/>
      <point x="1845.0" y="494.0"/>
      <point x="1689.0" y="303.0"/>
    </contour>
  </outline>
</glyph>
<glyph name="A" format="2">
  <advance width="1851"/>
  <unicode hex="0041"/>
  <guideline x="-249.0" y="165" angle="180.0" identifier="C2hvDwuUoM"/>
  <anchor x="1161.0" y="1414" name="UCtop"/>
  <anchor x="668.0" y="0" name="bottom"/>
  <anchor x="1504.0" y="0" name="right"/>
  <outline>
    <contour>
      <point x="367.0" y="388.0" type="line"/>
      <point x="1082.0" y="388.0" type="line"/>
      <point x="1159.0" y="611.0" type="line"/>
      <point x="444.0" y="611.0" type="line"/>
    </contour>
    <contour>
      <point x="1575.0" y="165.0" type="line"/>
      <point x="1448.0" y="1414.0" type="line"/>
      <point x="880.0" y="1414.0" type="line"/>
      <point x="59.0" y="162.0" type="line"/>
      <point x="-94.0" y="108.0" type="line"/>
      <point x="-129.0" y="0.0" type="line"/>
      <point x="450.0" y="0.0" type="line"/>
      <point x="484.0" y="108.0" type="line"/>
      <point x="339.0" y="162.0" type="line"/>
      <point x="1060.0" y="1284.0" type="line"/>
      <point x="985.0" y="1273.0" type="line"/>
      <point x="1072.0" y="163.0" type="line"/>
      <point x="904.0" y="108.0" type="line"/>
      <point x="868.0" y="0.0" type="line"/>
      <point x="1709.0" y="0.0" type="line"/>
      <point x="1744.0" y="108.0" type="line"/>
    </contour>
  </outline>
</glyph>
<glyph name="F" format="2">
  <advance width="1529"/>
  <unicode hex="0046"/>
  <anchor x="1020.0" y="1414" name="UCtop"/>
  <anchor x="345.0" y="0" name="bottom"/>
  <outline>
    <contour>
      <point x="1256.0" y="900.0" type="line"/>
      <point x="1084.0" y="900.0" type="line"/>
      <point x="1021.0" y="749.0" type="line"/>
      <point x="560.0" y="749.0" type="line"/>
      <point x="497.0" y="545.0" type="line"/>
      <point x="960.0" y="545.0" type="line"/>
      <point x="928.0" y="390.0" type="line"/>
      <point x="1100.0" y="390.0" type="line"/>
      <point x="1178.0" y="645.0" type="line"/>
    </contour>
    <contour>
      <point x="1613.0" y="951.0" type="line"/>
      <point x="1756.0" y="1512.0" type="line"/>
      <point x="1621.0" y="1512.0" type="line"/>
      <point x="1485.0" y="1414.0" type="line"/>
      <point x="795.0" y="1414.0" type="line"/>
      <point x="729.0" y="1180.0" type="line"/>
      <point x="1491.0" y="1180.0" type="line"/>
      <point x="1439.0" y="1329.0" type="line"/>
      <point x="1419.0" y="951.0" type="line"/>
    </contour>
    <contour>
      <point x="651.0" y="165.0" type="line"/>
      <point x="1038.0" y="1414.0" type="line"/>
      <point x="354.0" y="1414.0" type="line"/>
      <point x="322.0" y="1306.0" type="line"/>
      <point x="476.0" y="1249.0" type="line"/>
      <point x="140.0" y="169.0" type="line"/>
      <point x="-28.0" y="108.0" type="line"/>
      <point x="-61.0" y="0.0" type="line"/>
      <point x="773.0" y="0.0" type="line"/>
      <point x="804.0" y="108.0" type="line"/>
    </contour>
  </outline>
</glyph>
<glyph name="G" format="2">
  <advance width="1801"/>
  <unicode hex="0047"/>
  <anchor x="1060.0" y="1414" name="UCtop"/>
  <anchor x="867.0" y="0" name="bottom"/>
  <outline>
    <contour>
      <point x="1002" y="211" type="curve" smooth="yes"/>
      <point x="786" y="211"/>
      <point x="635" y="318"/>
      <point x="635" y="579" type="curve" smooth="yes"/>
      <point x="635" y="951"/>
      <point x="822" y="1182"/>
      <point x="1161" y="1182" type="curve" smooth="yes"/>
      <point x="1272" y="1182"/>
      <point x="1382" y="1165"/>
      <point x="1439" y="1121" type="curve"/>
      <point x="1358" y="1340" type="line"/>
      <point x="1435" y="896" type="line"/>
      <point x="1646" y="896" type="line"/>
      <point x="1705" y="1512" type="line"/>
      <point x="1555" y="1512" type="line"/>
      <point x="1384" y="1360" type="line"/>
      <point x="1616" y="1375" type="line"/>
      <point x="1488" y="1424"/>
      <point x="1348" y="1444"/>
      <point x="1167" y="1444" type="curve" smooth="yes"/>
      <point x="503" y="1444"/>
      <point x="145" y="1080"/>
      <point x="145" y="556" type="curve" smooth="yes"/>
      <point x="145" y="207"/>
      <point x="417" y="-30"/>
      <point x="916" y="-30" type="curve" smooth="yes"/>
      <point x="1208" y="-30"/>
      <point x="1380" y="-4"/>
      <point x="1579" y="56" type="curve"/>
      <point x="1655" y="228" type="line"/>
      <point x="1517" y="228" type="line"/>
      <point x="1602" y="507" type="line"/>
      <point x="1753" y="567" type="line"/>
      <point x="1786" y="676" type="line"/>
      <point x="952" y="676" type="line"/>
      <point x="921" y="567" type="line"/>
      <point x="1092" y="511" type="line"/>
      <point x="952" y="59" type="line"/>
      <point x="1239" y="252" type="line"/>
      <point x="1151" y="226"/>
      <point x="1054" y="211"/>
    </contour>
  </outline>
</glyph>
<glyph name="L" format="2">
  <advance width="1519"/>
  <unicode hex="004C"/>
  <guideline x="1464.0" y="-103" angle="180.0" identifier="e8lvbEaa4F"/>
  <anchor x="783.0" y="1414" name="UCtop"/>
  <anchor x="1249.0" y="1414" name="right"/>
  <anchor x="597.0" y="0" name="bottom"/>
  <anchor x="1398.0" y="854.0" name="mid"/>
  <outline>
    <contour>
      <point x="987.0" y="1245.0" type="line"/>
      <point x="1155.0" y="1306.0" type="line"/>
      <point x="1186.0" y="1414.0" type="line"/>
      <point x="354.0" y="1414.0" type="line"/>
      <point x="322.0" y="1306.0" type="line"/>
      <point x="476.0" y="1249.0" type="line"/>
      <point x="140.0" y="169.0" type="line"/>
      <point x="-28.0" y="108.0" type="line"/>
      <point x="-61.0" y="0.0" type="line"/>
      <point x="601.0" y="0.0" type="line"/>
    </contour>
    <contour>
      <point x="901.0" y="120.0" type="line"/>
      <point x="1081.0" y="234.0" type="line"/>
      <point x="244.0" y="234.0" type="line"/>
      <point x="176.0" y="0.0" type="line"/>
      <point x="975.0" y="0.0" type="line"/>
      <point x="1049.0" y="-103.0" type="line"/>
      <point x="1206.0" y="-103.0" type="line"/>
      <point x="1496.0" y="562.0" type="line"/>
      <point x="1299.0" y="562.0" type="line"/>
    </contour>
  </outline>
</glyph>
<glyph name="N" format="2">
  <advance width="1812"/>
  <unicode hex="004E"/>
  <guideline x="1110.0" y="1414" angle="228.70872811943212" identifier="kCVkxuMKOJ"/>
  <anchor x="1189.0" y="1414" name="UCtop"/>
  <anchor x="776.0" y="0" name="bottom"/>
  <outline>
    <contour>
      <point x="1297.0" y="77.0" type="line"/>
      <point x="1103.0" y="1414.0" type="line"/>
      <point x="349.0" y="1414.0" type="line"/>
      <point x="319.0" y="1315.0" type="line"/>
      <point x="471.0" y="1228.0" type="line"/>
      <point x="142.0" y="163.0" type="line"/>
      <point x="-31.0" y="108.0" type="line"/>
      <point x="-61.0" y="0.0" type="line"/>
      <point x="536.0" y="0.0" type="line"/>
      <point x="567.0" y="108.0" type="line"/>
      <point x="397.0" y="167.0" type="line"/>
      <point x="742.0" y="1291.0" type="line"/>
      <point x="668.0" y="1229.0" type="line"/>
      <point x="848.0" y="0.0" type="line"/>
      <point x="1425.0" y="0.0" type="line"/>
      <point x="1810.0" y="1251.0" type="line"/>
      <point x="1983.0" y="1306.0" type="line"/>
      <point x="2013.0" y="1414.0" type="line"/>
      <point x="1416.0" y="1414.0" type="line"/>
      <point x="1385.0" y="1306.0" type="line"/>
      <point x="1555.0" y="1247.0" type="line"/>
      <point x="1185.0" y="38.0" type="line"/>
    </contour>
  </outline>
</glyph>
<glyph name="O" format="2">
  <advance width="1804"/>
  <unicode hex="004F"/>
  <guideline x="971.0" y="746" angle="1.2953374056458793" identifier="Ql5hkH21J8"/>
  <anchor x="1106.0" y="1414" name="UCtop"/>
  <anchor x="783.0" y="0" name="bottom"/>
  <anchor x="1023.0" y="0" name="right"/>
  <anchor x="1436.0" y="1414" name="horn"/>
  <outline>
    <contour>
      <point x="623.0" y="487.0" type="curve" smooth="yes"/>
      <point x="623.0" y="824.0"/>
      <point x="766.0" y="1174.0"/>
      <point x="1066.0" y="1174.0" type="curve" smooth="yes"/>
      <point x="1218.0" y="1174.0"/>
      <point x="1295.0" y="1100.0"/>
      <point x="1295.0" y="927.0" type="curve" smooth="yes"/>
      <point x="1295.0" y="590.0"/>
      <point x="1152.0" y="240.0"/>
      <point x="852.0" y="240.0" type="curve" smooth="yes"/>
      <point x="700.0" y="240.0"/>
      <point x="623.0" y="314.0"/>
    </contour>
    <contour>
      <point x="1773.0" y="874.0" type="curve" smooth="yes"/>
      <point x="1773.0" y="1242.0"/>
      <point x="1554.0" y="1444.0"/>
      <point x="1079.0" y="1444.0" type="curve" smooth="yes"/>
      <point x="478.0" y="1444.0"/>
      <point x="145.0" y="1063.0"/>
      <point x="145.0" y="540.0" type="curve" smooth="yes"/>
      <point x="145.0" y="172.0"/>
      <point x="364.0" y="-30.0"/>
      <point x="839.0" y="-30.0" type="curve" smooth="yes"/>
      <point x="1440.0" y="-30.0"/>
      <point x="1773.0" y="351.0"/>
    </contour>
  </outline>
</glyph>
<glyph name="U" format="2">
  <advance width="1751"/>
  <unicode hex="0055"/>
  <anchor x="1206.0" y="1414" name="UCtop"/>
  <anchor x="995.0" y="0" name="right"/>
  <anchor x="753.0" y="0" name="bottom"/>
  <anchor x="1758.0" y="1414" name="horn"/>
  <outline>
    <contour>
      <point x="721.0" y="556.0" type="curve" smooth="yes"/>
      <point x="935.0" y="1245.0" type="line"/>
      <point x="1103.0" y="1306.0" type="line"/>
      <point x="1134.0" y="1414.0" type="line"/>
      <point x="302.0" y="1414.0" type="line"/>
      <point x="270.0" y="1306.0" type="line"/>
      <point x="424.0" y="1249.0" type="line"/>
      <point x="215.0" y="579.0" type="line" smooth="yes"/>
      <point x="94.0" y="193.0"/>
      <point x="304.0" y="-30.0"/>
      <point x="800.0" y="-30.0" type="curve" smooth="yes"/>
      <point x="1223.0" y="-30.0"/>
      <point x="1418.0" y="132.0"/>
      <point x="1540.0" y="530.0" type="curve" smooth="yes"/>
      <point x="1762.0" y="1251.0" type="line"/>
      <point x="1935.0" y="1306.0" type="line"/>
      <point x="1965.0" y="1414.0" type="line"/>
      <point x="1368.0" y="1414.0" type="line"/>
      <point x="1337.0" y="1306.0" type="line"/>
      <point x="1507.0" y="1247.0" type="line"/>
      <point x="1301.0" y="575.0" type="line" smooth="yes"/>
      <point x="1234" y="355"/>
      <point x="1142.0" y="296.0"/>
      <point x="949" y="296.0" type="curve" smooth="yes"/>
      <point x="747" y="296"/>
      <point x="664.0" y="374.0"/>
    </contour>
  </outline>
</glyph>
<glyph name="X" format="2">
  <advance width="1833"/>
  <unicode hex="0058"/>
  <anchor x="1178.0" y="1414" name="UCtop"/>
  <anchor x="745.0" y="0" name="bottom"/>
  <outline>
    <contour>
      <point x="838.0" y="613.0" type="line"/>
      <point x="1113.0" y="602.0" type="line"/>
      <point x="1789.0" y="1243.0" type="line"/>
      <point x="1948.0" y="1306.0" type="line"/>
      <point x="1981.0" y="1414.0" type="line"/>
      <point x="1376.0" y="1414.0" type="line"/>
      <point x="1343.0" y="1306.0" type="line"/>
      <point x="1486.0" y="1248.0" type="line"/>
      <point x="1032.0" y="801.0" type="line"/>
      <point x="757.0" y="812.0" type="line"/>
      <point x="81.0" y="171.0" type="line"/>
      <point x="-78.0" y="108.0" type="line"/>
      <point x="-111.0" y="0.0" type="line"/>
      <point x="494.0" y="0.0" type="line"/>
      <point x="527.0" y="108.0" type="line"/>
      <point x="384.0" y="166.0" type="line"/>
    </contour>
    <contour>
      <point x="995.0" y="174.0" type="line"/>
      <point x="817.0" y="108.0" type="line"/>
      <point x="783.0" y="0.0" type="line"/>
      <point x="1690.0" y="0.0" type="line"/>
      <point x="1725.0" y="108.0" type="line"/>
      <point x="1576.0" y="195.0" type="line"/>
      <point x="1228.0" y="824.0" type="line"/>
      <point x="1201.0" y="872.0" type="line"/>
      <point x="990.0" y="1252.0" type="line"/>
      <point x="1134.0" y="1303.0" type="line"/>
      <point x="1168.0" y="1414.0" type="line"/>
      <point x="293.0" y="1414.0" type="line"/>
      <point x="260.0" y="1306.0" type="line"/>
      <point x="407.0" y="1237.0" type="line"/>
      <point x="709.0" y="691.0" type="line"/>
      <point x="739.0" y="636.0" type="line"/>
    </contour>
  </outline>
</glyph>
<glyph name="bracketleft" format="2">
  <advance width="891"/>
  <unicode hex="005B"/>
  <outline>
    <contour>
      <point x="-39.0" y="-217.0" type="line"/>
      <point x="607.0" y="-217.0" type="line"/>
      <point x="673.0" y="0.0" type="line"/>
      <point x="369.0" y="0.0" type="line"/>
      <point x="751.0" y="1247.0" type="line"/>
      <point x="1055.0" y="1247.0" type="line"/>
      <point x="1121.0" y="1464.0" type="line"/>
      <point x="475.0" y="1464.0" type="line"/>
    </contour>
  </outline>
</glyph>
<glyph name="h" format="2">
  <advance width="1540"/>
  <unicode hex="0068"/>
  <anchor x="1027.0" y="1414" name="UCtop"/>
  <anchor x="611.0" y="0" name="bottom"/>
  <anchor x="580.0" y="1207.0" name="center"/>
  <outline>
    <contour>
      <point x="530.0" y="173.0" type="line" smooth="yes"/>
      <point x="674.0" y="602.0"/>
      <point x="768.0" y="748.0"/>
      <point x="878.0" y="748.0" type="curve" smooth="yes"/>
      <point x="914.0" y="748.0"/>
      <point x="929.0" y="732.0"/>
      <point x="929.0" y="701.0" type="curve" smooth="yes"/>
      <point x="929.0" y="669.0"/>
      <point x="921.0" y="629.0"/>
      <point x="875.0" y="511.0" type="curve" smooth="yes"/>
      <point x="742.0" y="170.0" type="line" smooth="yes"/>
      <point x="691.0" y="40.0"/>
      <point x="763.0" y="-30.0"/>
      <point x="896.0" y="-30.0" type="curve" smooth="yes"/>
      <point x="1090.0" y="-30.0"/>
      <point x="1282.0" y="21.0"/>
      <point x="1531.0" y="225.0" type="curve"/>
      <point x="1477.0" y="321.0" type="line"/>
      <point x="1272.0" y="215.0"/>
      <point x="1180.0" y="208.0"/>
      <point x="1042.0" y="223.0" type="curve"/>
      <point x="1170.0" y="91.0" type="line"/>
      <point x="1344.0" y="538.0" type="line" smooth="yes"/>
      <point x="1402.0" y="688.0"/>
      <point x="1419.0" y="775.0"/>
      <point x="1419.0" y="839.0" type="curve" smooth="yes"/>
      <point x="1419.0" y="972.0"/>
      <point x="1330.0" y="1074.0"/>
      <point x="1147.0" y="1074.0" type="curve" smooth="yes"/>
      <point x="907.0" y="1074.0"/>
      <point x="755.0" y="960.0"/>
      <point x="537.0" y="463.0" type="curve"/>
      <point x="496.0" y="463.0" type="line"/>
      <point x="937.0" y="1494.0" type="line"/>
      <point x="872.0" y="1494.0" type="line"/>
      <point x="182.0" y="1390.0" type="line"/>
      <point x="154.0" y="1277.0" type="line"/>
      <point x="211.0" y="1237.3235294117646"/>
      <point x="322.0" y="1160.0588235294117"/>
      <point x="358.0" y="1135.0" type="curve"/>
      <point x="11.0" y="0.0" type="line"/>
      <point x="472.0" y="0.0" type="line"/>
    </contour>
  </outline>
</glyph>
<glyph name="m" format="2">
  <advance width="2275"/>
  <unicode hex="006D"/>
  <anchor x="1345.0" y="1044.0" name="top"/>
  <anchor x="1025.0" y="0" name="bottom"/>
  <outline>
    <contour>
      <point x="1900.0" y="91.0" type="line"/>
      <point x="2079.0" y="538.0" type="line" smooth="yes"/>
      <point x="2139.0" y="687.0"/>
      <point x="2154.0" y="775.0"/>
      <point x="2154.0" y="839.0" type="curve" smooth="yes"/>
      <point x="2154.0" y="972.0"/>
      <point x="2058.0" y="1074.0"/>
      <point x="1862.0" y="1074.0" type="curve" smooth="yes"/>
      <point x="1678.0" y="1074.0"/>
      <point x="1532.0" y="969.0"/>
      <point x="1312.0" y="463.0" type="curve"/>
      <point x="1271.0" y="463.0" type="line"/>
      <point x="1344.0" y="683.0" type="line" smooth="yes"/>
      <point x="1368.0" y="755.0"/>
      <point x="1379.0" y="817.0"/>
      <point x="1379.0" y="869.0" type="curve" smooth="yes"/>
      <point x="1379.0" y="1006.0"/>
      <point x="1300.0" y="1074.0"/>
      <point x="1152.0" y="1074.0" type="curve" smooth="yes"/>
      <point x="980.0" y="1074.0"/>
      <point x="871.0" y="992.0"/>
      <point x="654.0" y="463.0" type="curve"/>
      <point x="613.0" y="463.0" type="line"/>
      <point x="789.0" y="1063.0" type="line"/>
      <point x="692.0" y="1070.0"/>
      <point x="652.0" y="1070.0"/>
      <point x="560.0" y="1070.0" type="curve" smooth="yes"/>
      <point x="272.0" y="1070.0"/>
      <point x="121.0" y="978.0"/>
      <point x="49.0" y="645.0" type="curve"/>
      <point x="96.0" y="633.0" type="line"/>
      <point x="183.0" y="774.0"/>
      <point x="227.0" y="787.0"/>
      <point x="358.0" y="787.0" type="curve" smooth="yes"/>
      <point x="364.0" y="787.0"/>
      <point x="369.0" y="787.0"/>
      <point x="373.0" y="787.0" type="curve"/>
      <point x="131.0" y="0.0" type="line"/>
      <point x="589.0" y="0.0" type="line"/>
      <point x="647.0" y="173.0" type="line" smooth="yes"/>
      <point x="802.0" y="634.0"/>
      <point x="862.0" y="758.0"/>
      <point x="965.0" y="758.0" type="curve" smooth="yes"/>
      <point x="996.0" y="758.0"/>
      <point x="1008.0" y="740.0"/>
      <point x="1008.0" y="709.0" type="curve" smooth="yes"/>
      <point x="1008.0" y="681.0"/>
      <point x="999.0" y="640.0"/>
      <point x="957.0" y="519.0" type="curve" smooth="yes"/>
      <point x="778.0" y="0.0" type="line"/>
      <point x="1237.0" y="0.0" type="line"/>
      <point x="1295.0" y="173.0" type="line" smooth="yes"/>
      <point x="1453.0" y="645.0"/>
      <point x="1536.0" y="758.0"/>
      <point x="1613.0" y="758.0" type="curve" smooth="yes"/>
      <point x="1653.0" y="758.0"/>
      <point x="1671.0" y="738.0"/>
      <point x="1671.0" y="702.0" type="curve" smooth="yes"/>
      <point x="1671.0" y="678.0"/>
      <point x="1661.0" y="638.0"/>
      <point x="1614.0" y="521.0" type="curve" smooth="yes"/>
      <point x="1472.0" y="170.0" type="line" smooth="yes"/>
      <point x="1419.0" y="40.0"/>
      <point x="1493.0" y="-30.0"/>
      <point x="1626.0" y="-30.0" type="curve" smooth="yes"/>
      <point x="1820.0" y="-30.0"/>
      <point x="2012.0" y="21.0"/>
      <point x="2261.0" y="225.0" type="curve"/>
      <point x="2207.0" y="321.0" type="line"/>
      <point x="2002.0" y="215.0"/>
      <point x="1910.0" y="208.0"/>
      <point x="1772.0" y="223.0" type="curve"/>
    </contour>
  </outline>
</glyph>
<glyph name="o" format="2">
  <advance width="1349"/>
  <unicode hex="006F"/>
  <guideline x="675.0" y="522" angle="8.641594466300717" identifier="IaOkkBgA6X"/>
  <anchor x="535.0" y="0" name="bottom"/>
  <anchor x="961.0" y="1044.0" name="horn"/>
  <anchor x="751.0" y="0" name="right"/>
  <anchor x="795.0" y="1044.0" name="top"/>
  <outline>
    <contour>
      <point x="774.0" y="1074.0" type="curve" smooth="yes"/>
      <point x="298.0" y="1074.0"/>
      <point x="69.0" y="735.0"/>
      <point x="69.0" y="400.0" type="curve" smooth="yes"/>
      <point x="69.0" y="163.0"/>
      <point x="210.0" y="-30.0"/>
      <point x="576.0" y="-30.0" type="curve" smooth="yes"/>
      <point x="1052.0" y="-30.0"/>
      <point x="1281.0" y="309.0"/>
      <point x="1281.0" y="644.0" type="curve" smooth="yes"/>
      <point x="1281.0" y="881.0"/>
      <point x="1140.0" y="1074.0"/>
    </contour>
    <contour>
      <point x="604.0" y="229.0" type="curve" smooth="yes"/>
      <point x="534.0" y="229.0"/>
      <point x="504.0" y="261.0"/>
      <point x="504.0" y="360.0" type="curve" smooth="yes"/>
      <point x="504.0" y="530.0"/>
      <point x="588.0" y="815.0"/>
      <point x="746.0" y="815.0" type="curve" smooth="yes"/>
      <point x="816.0" y="815.0"/>
      <point x="846.0" y="783.0"/>
      <point x="846.0" y="684.0" type="curve" smooth="yes"/>
      <point x="846.0" y="514.0"/>
      <point x="762.0" y="229.0"/>
    </contour>
  </outline>
</glyph>
<glyph name="r" format="2">
  <advance width="1330"/>
  <unicode hex="0072"/>
  <anchor x="798.0" y="1044.0" name="top"/>
  <anchor x="360.0" y="0" name="bottom"/>
  <outline>
    <contour>
      <point x="373" y="787" type="curve"/>
      <point x="131" y="0" type="line"/>
      <point x="589" y="0" type="line"/>
      <point x="646" y="175" type="line" smooth="yes"/>
      <point x="775" y="570"/>
      <point x="888" y="755"/>
      <point x="1012" y="755" type="curve" smooth="yes"/>
      <point x="1040" y="755"/>
      <point x="1079.0" y="727.0"/>
      <point x="1114" y="696" type="curve" smooth="yes"/>
      <point x="1149" y="665"/>
      <point x="1189" y="627"/>
      <point x="1197" y="627" type="curve" smooth="yes"/>
      <point x="1295" y="627"/>
      <point x="1406" y="757"/>
      <point x="1406" y="886" type="curve" smooth="yes"/>
      <point x="1406" y="997"/>
      <point x="1337" y="1074"/>
      <point x="1200" y="1074" type="curve" smooth="yes"/>
      <point x="986" y="1074"/>
      <point x="839" y="910"/>
      <point x="654" y="463" type="curve"/>
      <point x="613" y="463" type="line"/>
      <point x="789" y="1063" type="line"/>
      <point x="711" y="1069"/>
      <point x="671" y="1070"/>
      <point x="560" y="1070" type="curve" smooth="yes"/>
      <point x="272" y="1070"/>
      <point x="121" y="978"/>
      <point x="49" y="645" type="curve"/>
      <point x="96" y="633" type="line"/>
      <point x="183" y="774"/>
      <point x="227" y="787"/>
      <point x="358" y="787" type="curve" smooth="yes"/>
      <point x="364" y="787"/>
      <point x="369" y="787"/>
    </contour>
  </outline>
</glyph>
<glyph name="s" format="2">
  <advance width="1172"/>
  <unicode hex="0073"/>
  <anchor x="726.0" y="1044.0" name="top"/>
  <anchor x="496.0" y="0" name="bottom"/>
  <outline>
    <contour>
      <point x="275" y="326" type="curve"/>
      <point x="49" y="326"/>
      <point x="0" y="282"/>
      <point x="0" y="175" type="curve" smooth="yes"/>
      <point x="0" y="57"/>
      <point x="106" y="-30"/>
      <point x="423" y="-30" type="curve" smooth="yes"/>
      <point x="857" y="-30"/>
      <point x="1054" y="104"/>
      <point x="1054" y="397" type="curve" smooth="yes"/>
      <point x="1054" y="557"/>
      <point x="973" y="628"/>
      <point x="774" y="681" type="curve" smooth="yes"/>
      <point x="575" y="734"/>
      <point x="551" y="761"/>
      <point x="551" y="821" type="curve" smooth="yes"/>
      <point x="551" y="884"/>
      <point x="592" y="917"/>
      <point x="730" y="917" type="curve" smooth="yes"/>
      <point x="782" y="917"/>
      <point x="820" y="908"/>
      <point x="853" y="882" type="curve" smooth="yes"/>
      <point x="886" y="856.0"/>
      <point x="909" y="808"/>
      <point x="923" y="734" type="curve"/>
      <point x="1125" y="734"/>
      <point x="1172" y="778"/>
      <point x="1172" y="883" type="curve" smooth="yes"/>
      <point x="1172" y="995"/>
      <point x="1075" y="1073"/>
      <point x="769" y="1073" type="curve" smooth="yes"/>
      <point x="376" y="1073"/>
      <point x="172" y="925"/>
      <point x="172" y="693" type="curve" smooth="yes"/>
      <point x="172" y="501"/>
      <point x="252" y="436"/>
      <point x="457" y="386" type="curve" smooth="yes"/>
      <point x="662" y="336"/>
      <point x="692" y="314"/>
      <point x="692" y="243" type="curve" smooth="yes"/>
      <point x="692" y="172"/>
      <point x="634" y="132"/>
      <point x="465" y="132" type="curve" smooth="yes"/>
      <point x="389" y="132"/>
      <point x="344" y="139"/>
      <point x="317" y="167" type="curve" smooth="yes"/>
      <point x="290" y="195"/>
      <point x="280" y="244"/>
    </contour>
  </outline>
</glyph>
<glyph name="x" format="2">
  <advance width="1422"/>
  <unicode hex="0078"/>
  <anchor x="872.0" y="1044.0" name="top"/>
  <anchor x="552.0" y="0" name="bottom"/>
  <outline>
    <contour>
      <point x="765" y="384" type="line"/>
      <point x="909" y="545" type="line" smooth="yes"/>
      <point x="1000" y="645"/>
      <point x="1107" y="757"/>
      <point x="1166" y="757" type="curve" smooth="yes"/>
      <point x="1192" y="757"/>
      <point x="1221" y="741"/>
      <point x="1249" y="720" type="curve" smooth="yes"/>
      <point x="1277" y="699"/>
      <point x="1304" y="674"/>
      <point x="1318" y="674" type="curve" smooth="yes"/>
      <point x="1375" y="674"/>
      <point x="1490" y="774"/>
      <point x="1490" y="897" type="curve" smooth="yes"/>
      <point x="1490" y="1008"/>
      <point x="1423" y="1074"/>
      <point x="1311" y="1074" type="curve" smooth="yes"/>
      <point x="1175.0" y="1074.0"/>
      <point x="1101" y="1026"/>
      <point x="897" y="763" type="curve" smooth="yes"/>
      <point x="718" y="532" type="line"/>
      <point x="650" y="645" type="line"/>
      <point x="515" y="499" type="line" smooth="yes"/>
      <point x="353" y="323"/>
      <point x="292" y="287.0"/>
      <point x="257" y="287" type="curve" smooth="yes"/>
      <point x="228" y="287"/>
      <point x="197" y="307.0"/>
      <point x="170" y="328" type="curve" smooth="yes"/>
      <point x="143" y="349"/>
      <point x="118" y="370"/>
      <point x="105" y="370" type="curve" smooth="yes"/>
      <point x="48" y="370"/>
      <point x="-66" y="270"/>
      <point x="-66" y="147" type="curve" smooth="yes"/>
      <point x="-66" y="36"/>
      <point x="1" y="-30"/>
      <point x="113" y="-30" type="curve" smooth="yes"/>
      <point x="262" y="-30"/>
      <point x="327" y="41"/>
      <point x="527" y="281" type="curve" smooth="yes"/>
      <point x="698" y="486" type="line"/>
    </contour>
    <contour>
      <point x="1344.0" y="293.0" type="curve"/>
      <point x="1273.0" y="385.0" type="line"/>
      <point x="1121.0" y="275.0"/>
      <point x="1046.0" y="243.0"/>
      <point x="1021.0" y="243.0" type="curve" smooth="yes"/>
      <point x="1009.0" y="243.0"/>
      <point x="1007.0" y="249.0"/>
      <point x="1001.0" y="275.0" type="curve" smooth="yes"/>
      <point x="871.0" y="839.0" type="line" smooth="yes"/>
      <point x="830.0" y="1016.0"/>
      <point x="784.0" y="1074.0"/>
      <point x="653.0" y="1074.0" type="curve" smooth="yes"/>
      <point x="462.0" y="1074.0"/>
      <point x="311.0" y="979.0"/>
      <point x="89.0" y="712.0" type="curve"/>
      <point x="169.0" y="629.0" type="line"/>
      <point x="324.0" y="768.0"/>
      <point x="387.0" y="802.0"/>
      <point x="407.0" y="802.0" type="curve" smooth="yes"/>
      <point x="415.0" y="802.0"/>
      <point x="416.0" y="799.0"/>
      <point x="424.0" y="766.0" type="curve" smooth="yes"/>
      <point x="557.0" y="203.0" type="line" smooth="yes"/>
      <point x="599.0" y="26.0"/>
      <point x="644.0" y="-30.0"/>
      <point x="775.0" y="-30.0" type="curve" smooth="yes"/>
      <point x="924.0" y="-30.0"/>
      <point x="1077.0" y="44.0"/>
    </contour>
  </outline>
</glyph>
<glyph name="bar" format="2">
  <advance width="675"/>
  <unicode hex="007C"/>
  <outline>
    <contour>
      <point x="-113.0" y="-465.0" type="line"/>
      <point x="187.0" y="-465.0" type="line"/>
      <point x="798.0" y="1535.0" type="line"/>
      <point x="498.0" y="1535.0" type="line"/>
    </contour>
  </outline>
</glyph>
<glyph name="asciitilde" format="2">
  <advance width="1200"/>
  <unicode hex="007E"/>
  <outline>
    <contour>
      <point x="1096.0" y="713.0" type="curve"/>
      <point x="845.0" y="713.0" type="line"/>
      <point x="820.0" y="610.0"/>
      <point x="787.0" y="588.0"/>
      <point x="742.0" y="588.0" type="curve" smooth="yes"/>
      <point x="666.0" y="588.0"/>
      <point x="580.0" y="726.0"/>
      <point x="436.0" y="726.0" type="curve" smooth="yes"/>
      <point x="282.0" y="726.0"/>
      <point x="175.0" y="633.0"/>
      <point x="105.0" y="330.0" type="curve"/>
      <point x="356.0" y="330.0" type="line"/>
      <point x="381.0" y="433.0"/>
      <point x="414.0" y="455.0"/>
      <point x="459.0" y="455.0" type="curve" smooth="yes"/>
      <point x="535.0" y="455.0"/>
      <point x="621.0" y="317.0"/>
      <point x="765.0" y="317.0" type="curve" smooth="yes"/>
      <point x="919.0" y="317.0"/>
      <point x="1026.0" y="410.0"/>
    </contour>
  </outline>
</glyph>
<glyph name="brokenbar" format="2">
  <advance width="675"/>
  <unicode hex="00A6"/>
  <outline>
    <contour>
      <point x="550.0" y="725.0" type="line"/>
      <point x="798.0" y="1535.0" type="line"/>
      <point x="498.0" y="1535.0" type="line"/>
      <point x="250.0" y="725.0" type="line"/>
    </contour>
    <contour>
      <point x="-113.0" y="-465.0" type="line"/>
      <point x="187.0" y="-465.0" type="line"/>
      <point x="435.0" y="345.0" type="line"/>
      <point x="135.0" y="345.0" type="line"/>
    </contour>
  </outline>
</glyph>
<glyph name="ordfeminine" format="2">
  <advance width="1157"/>
  <unicode hex="00AA"/>
  <outline>
    <contour>
      <point x="150.0" y="412.0" type="line"/>
      <point x="982.0" y="412.0" type="line"/>
      <point x="1043.0" y="612.0" type="line"/>
      <point x="212.0" y="612.0" type="line"/>
    </contour>
    <contour>
      <point x="745.0" y="872.0" type="line" smooth="yes"/>
      <point x="706.0" y="756.0"/>
      <point x="750.0" y="729.0"/>
      <point x="850.0" y="729.0" type="curve" smooth="yes"/>
      <point x="955.0" y="729.0"/>
      <point x="1032.0" y="752.0"/>
      <point x="1190.0" y="856.0" type="curve"/>
      <point x="1164.0" y="929.0" type="line"/>
      <point x="1070.0" y="896.0"/>
      <point x="1015.0" y="891.0"/>
      <point x="893.0" y="898.0" type="curve"/>
      <point x="997.0" y="796.0" type="line"/>
      <point x="1207.0" y="1414.0" type="line"/>
      <point x="935.0" y="1414.0" type="line"/>
      <point x="845.0" y="1288.0" type="line"/>
      <point x="802.0" y="1187.0" type="line" smooth="yes"/>
      <point x="742.0" y="1046.0"/>
      <point x="656.0" y="924.0"/>
      <point x="609.0" y="924.0" type="curve" smooth="yes"/>
      <point x="578.0" y="924.0"/>
      <point x="568.0" y="937.0"/>
      <point x="568.0" y="965.0" type="curve" smooth="yes"/>
      <point x="568.0" y="1073.0"/>
      <point x="694.0" y="1281.0"/>
      <point x="771.0" y="1281.0" type="curve" smooth="yes"/>
      <point x="801.0" y="1281.0"/>
      <point x="825.0" y="1270.0"/>
      <point x="849.0" y="1207.0" type="curve"/>
      <point x="867.0" y="1239.0" type="line"/>
      <point x="837.0" y="1371.0"/>
      <point x="781.0" y="1433.0"/>
      <point x="686.0" y="1433.0" type="curve" smooth="yes"/>
      <point x="467.0" y="1433.0"/>
      <point x="240.0" y="1164.0"/>
      <point x="240.0" y="920.0" type="curve" smooth="yes"/>
      <point x="240.0" y="786.0"/>
      <point x="330.0" y="729.0"/>
      <point x="436.0" y="729.0" type="curve" smooth="yes"/>
      <point x="547.0" y="729.0"/>
      <point x="632.0" y="770.0"/>
      <point x="778.0" y="1028.0" type="curve"/>
      <point x="798.0" y="1028.0" type="line"/>
    </contour>
  </outline>
</glyph>
<glyph name="logicalnot" format="2">
  <advance width="1200"/>
  <unicode hex="00AC"/>
  <outline>
    <contour>
      <point x="236.0" y="847.0" type="line"/>
      <point x="154.0" y="579.0" type="line"/>
      <point x="802.0" y="579.0" type="line"/>
      <point x="685.0" y="197.0" type="line"/>
      <point x="940.0" y="197.0" type="line"/>
      <point x="1138.0" y="847.0" type="line"/>
    </contour>
  </outline>
</glyph>
<glyph name="degree" format="2">
  <advance width="765"/>
  <unicode hex="00B0"/>
  <outline>
    <contour>
      <point x="597.0" y="1434.0" type="curve" smooth="yes"/>
      <point x="385.0" y="1434.0"/>
      <point x="256.0" y="1276.0"/>
      <point x="256.0" y="1099.0" type="curve" smooth="yes"/>
      <point x="256.0" y="943.0"/>
      <point x="372.0" y="846.0"/>
      <point x="532.0" y="846.0" type="curve" smooth="yes"/>
      <point x="744.0" y="846.0"/>
      <point x="873.0" y="1004.0"/>
      <point x="873.0" y="1181.0" type="curve" smooth="yes"/>
      <point x="873.0" y="1337.0"/>
      <point x="757.0" y="1434.0"/>
    </contour>
    <contour>
      <point x="550.0" y="1003.0" type="curve" smooth="yes"/>
      <point x="474.0" y="1003.0"/>
      <point x="429.0" y="1046.0"/>
      <point x="429.0" y="1121.0" type="curve" smooth="yes"/>
      <point x="429.0" y="1205.0"/>
      <point x="483.0" y="1277.0"/>
      <point x="577.0" y="1277.0" type="curve" smooth="yes"/>
      <point x="655.0" y="1277.0"/>
      <point x="700.0" y="1234.0"/>
      <point x="700.0" y="1159.0" type="curve" smooth="yes"/>
      <point x="700.0" y="1075.0"/>
      <point x="646.0" y="1003.0"/>
    </contour>
  </outline>
</glyph>
<glyph name="uni00B2" format="2">
  <advance width="856"/>
  <unicode hex="00B2"/>
  <outline>
    <contour>
      <point x="624.0" y="758.0" type="line"/>
      <point x="886.0" y="909.0" type="line"/>
      <point x="424.0" y="909.0" type="line"/>
      <point x="392.0" y="858.0" type="line"/>
      <point x="578.0" y="931.0" type="line" smooth="yes"/>
      <point x="878.0" y="1049.0"/>
      <point x="934.0" y="1128.0"/>
      <point x="934.0" y="1252.0" type="curve" smooth="yes"/>
      <point x="934.0" y="1378.0"/>
      <point x="828.0" y="1438.0"/>
      <point x="649.0" y="1438.0" type="curve" smooth="yes"/>
      <point x="451.0" y="1438.0"/>
      <point x="348.0" y="1365.0"/>
      <point x="238.0" y="1171.0" type="curve"/>
      <point x="333.0" y="1106.0" type="line"/>
      <point x="392.0" y="1189.0"/>
      <point x="438.0" y="1215.0"/>
      <point x="507.0" y="1215.0" type="curve" smooth="yes"/>
      <point x="572.0" y="1215.0"/>
      <point x="609.0" y="1195.0"/>
      <point x="609.0" y="1150.0" type="curve" smooth="yes"/>
      <point x="609.0" y="1091.0"/>
      <point x="582.0" y="1052.0"/>
      <point x="383.0" y="930.0" type="curve" smooth="yes"/>
      <point x="198.0" y="816.0" type="line"/>
      <point x="151.0" y="662.0" type="line"/>
      <point x="672.0" y="662.0" type="line"/>
      <point x="713.0" y="629.0" type="line"/>
      <point x="776.0" y="629.0" type="line"/>
      <point x="948.0" y="977.0" type="line"/>
      <point x="859.0" y="977.0" type="line"/>
    </contour>
  </outline>
</glyph>
<glyph name="uni00B3" format="2">
  <advance width="813"/>
  <unicode hex="00B3"/>
  <outline>
    <contour>
      <point x="411.0" y="961.0" type="line"/>
      <point x="479.0" y="961.0" type="line" smooth="yes"/>
      <point x="543.0" y="961.0"/>
      <point x="581.0" y="945.0"/>
      <point x="581.0" y="892.0" type="curve" smooth="yes"/>
      <point x="581.0" y="816.0"/>
      <point x="519.0" y="775.0"/>
      <point x="417.0" y="775.0" type="curve" smooth="yes"/>
      <point x="309.0" y="775.0"/>
      <point x="263.0" y="859.0"/>
      <point x="247.0" y="859.0" type="curve" smooth="yes"/>
      <point x="177.0" y="859.0"/>
      <point x="134.0" y="816.0"/>
      <point x="134.0" y="752.0" type="curve" smooth="yes"/>
      <point x="134.0" y="695.0"/>
      <point x="187.0" y="643.0"/>
      <point x="390.0" y="643.0" type="curve" smooth="yes"/>
      <point x="727.0" y="643.0"/>
      <point x="876.0" y="765.0"/>
      <point x="876.0" y="942.0" type="curve" smooth="yes"/>
      <point x="876.0" y="1042.0"/>
      <point x="802.0" y="1108.0"/>
      <point x="670.0" y="1108.0" type="curve"/>
      <point x="670.0" y="1102.0" type="line"/>
      <point x="857.0" y="1126.0"/>
      <point x="900.0" y="1194.0"/>
      <point x="900.0" y="1276.0" type="curve" smooth="yes"/>
      <point x="900.0" y="1363.0"/>
      <point x="850.0" y="1438.0"/>
      <point x="682.0" y="1438.0" type="curve" smooth="yes"/>
      <point x="465.0" y="1438.0"/>
      <point x="350.0" y="1355.0"/>
      <point x="268.0" y="1194.0" type="curve"/>
      <point x="363.0" y="1137.0" type="line"/>
      <point x="404.0" y="1209.0"/>
      <point x="457.0" y="1247.0"/>
      <point x="525.0" y="1247.0" type="curve" smooth="yes"/>
      <point x="584.0" y="1247.0"/>
      <point x="614.0" y="1226.0"/>
      <point x="614.0" y="1175.0" type="curve" smooth="yes"/>
      <point x="614.0" y="1118.0"/>
      <point x="585.0" y="1085.0"/>
      <point x="411.0" y="1073.0" type="curve"/>
    </contour>
  </outline>
</glyph>
<glyph name="paragraph" format="2">
  <advance width="1426"/>
  <unicode hex="00B6"/>
  <outline>
    <contour>
      <point x="623.0" y="-217.0" type="line"/>
      <point x="1071.0" y="1247.0" type="line"/>
      <point x="1307.0" y="1247.0" type="line"/>
      <point x="1358.0" y="1414.0" type="line"/>
      <point x="929.0" y="1414.0" type="line"/>
      <point x="430.0" y="-217.0" type="line"/>
    </contour>
    <contour>
      <point x="949.0" y="-217.0" type="line"/>
      <point x="1398.0" y="1250.0" type="line"/>
      <point x="1571.0" y="1297.0" type="line"/>
      <point x="1607.0" y="1414.0" type="line"/>
      <point x="1255.0" y="1414.0" type="line"/>
      <point x="756.0" y="-217.0" type="line"/>
    </contour>
    <contour>
      <point x="1075.0" y="1414.0" type="line"/>
      <point x="776.0" y="1414.0" type="line" smooth="yes"/>
      <point x="367.0" y="1414.0"/>
      <point x="193.0" y="1146.0"/>
      <point x="193.0" y="862.0" type="curve" smooth="yes"/>
      <point x="193.0" y="668.0"/>
      <point x="314.0" y="582.0"/>
      <point x="552.0" y="582.0" type="curve" smooth="yes"/>
      <point x="821.0" y="582.0" type="line"/>
    </contour>
  </outline>
</glyph>
<glyph name="multiply" format="2">
  <advance width="1200"/>
  <unicode hex="00D7"/>
  <outline>
    <contour>
      <point x="90.0" y="286.0" type="line"/>
      <point x="222.0" y="77.0" type="line"/>
      <point x="1110.0" y="758.0" type="line"/>
      <point x="978.0" y="967.0" type="line"/>
    </contour>
    <contour>
      <point x="271.0" y="823.0" type="line"/>
      <point x="706.0" y="77.0" type="line"/>
      <point x="933.0" y="213.0" type="line"/>
      <point x="494.0" y="967.0" type="line"/>
    </contour>
  </outline>
</glyph>
<glyph name="Thorn" format="2">
  <advance width="1636"/>
  <unicode hex="00DE"/>
  <guideline x="1675.0" y="893" angle="177.35588627308692" identifier="jKdTsYVVLN"/>
  <outline>
    <contour>
      <point x="933.0" y="494.0" type="curve" smooth="yes"/>
      <point x="522.0" y="494.0" type="line"/>
      <point x="394.0" y="260.0" type="line"/>
      <point x="990.0" y="260.0" type="line" smooth="yes"/>
      <point x="1442.0" y="260.0"/>
      <point x="1624.0" y="542.0"/>
      <point x="1624.0" y="818.0" type="curve" smooth="yes"/>
      <point x="1624.0" y="1042.0"/>
      <point x="1491.0" y="1174.0"/>
      <point x="1096.0" y="1174.0" type="curve" smooth="yes"/>
      <point x="685.0" y="1174.0" type="line"/>
      <point x="690.0" y="940.0" type="line"/>
      <point x="976.0" y="940.0" type="line" smooth="yes"/>
      <point x="1098.0" y="940.0"/>
      <point x="1150.0" y="905.0"/>
      <point x="1150.0" y="821.0" type="curve" smooth="yes"/>
      <point x="1150.0" y="688.0"/>
      <point x="1087.0" y="494.0"/>
    </contour>
    <contour>
      <point x="476.0" y="1249.0" type="line"/>
      <point x="140.0" y="169.0" type="line"/>
      <point x="-28.0" y="108.0" type="line"/>
      <point x="-61.0" y="0.0" type="line"/>
      <point x="773.0" y="0.0" type="line"/>
      <point x="804.0" y="108.0" type="line"/>
      <point x="651.0" y="165.0" type="line"/>
      <point x="987.0" y="1245.0" type="line"/>
      <point x="1155.0" y="1306.0" type="line"/>
      <point x="1186.0" y="1414.0" type="line"/>
      <point x="354.0" y="1414.0" type="line"/>
      <point x="322.0" y="1306.0" type="line"/>
    </contour>
  </outline>
</glyph>
<glyph name="thorn" format="2">
  <advance width="1402"/>
  <unicode hex="00FE"/>
  <outline>
    <contour>
      <point x="527.0" y="332.0" type="curve" smooth="yes"/>
      <point x="556.0" y="439.0" type="line" smooth="yes"/>
      <point x="604.0" y="616.0"/>
      <point x="715.0" y="787.0"/>
      <point x="811.0" y="787.0" type="curve" smooth="yes"/>
      <point x="861.0" y="787.0"/>
      <point x="885.0" y="750.0"/>
      <point x="885.0" y="673.0" type="curve" smooth="yes"/>
      <point x="885.0" y="410.0"/>
      <point x="738.0" y="146.0"/>
      <point x="604.0" y="146.0" type="curve" smooth="yes"/>
      <point x="546.0" y="146.0"/>
      <point x="512.0" y="184.0"/>
      <point x="512.0" y="247.0" type="curve" smooth="yes"/>
      <point x="512.0" y="266.0"/>
      <point x="515.0" y="287.0"/>
    </contour>
    <contour>
      <point x="526.0" y="664.0" type="line"/>
      <point x="868.0" y="1494.0" type="line"/>
      <point x="803.0" y="1494.0" type="line"/>
      <point x="173.0" y="1390.0" type="line"/>
      <point x="145.0" y="1277.0" type="line"/>
      <point x="202.0" y="1237.3235294117646"/>
      <point x="313.0" y="1160.0588235294117"/>
      <point x="349.0" y="1135.0" type="curve"/>
      <point x="-66.0" y="-294.0" type="line"/>
      <point x="-180.0" y="-325.0" type="line"/>
      <point x="-210.0" y="-435.0" type="line"/>
      <point x="493.0" y="-435.0" type="line"/>
      <point x="526.0" y="-324.0" type="line"/>
      <point x="378.0" y="-293.0" type="line"/>
      <point x="512.0" y="170.0" type="line"/>
      <point x="297.0" y="170.0" type="line"/>
      <point x="307.0" y="35.0"/>
      <point x="443.0" y="-29.0"/>
      <point x="640.0" y="-29.0" type="curve" smooth="yes"/>
      <point x="1030.0" y="-29.0"/>
      <point x="1357.0" y="329.0"/>
      <point x="1357.0" y="734.0" type="curve" smooth="yes"/>
      <point x="1357.0" y="942.0"/>
      <point x="1254.0" y="1074.0"/>
      <point x="1043.0" y="1074.0" type="curve" smooth="yes"/>
      <point x="844.0" y="1074.0"/>
      <point x="706.0" y="953.0"/>
      <point x="564.0" y="664.0" type="curve"/>
    </contour>
  </outline>
</glyph>
<glyph name="aogonek" format="2">
  <advance width="1558"/>
  <unicode hex="0105"/>
  <outline>
    <contour>
      <point x="1544.0" y="231.0" type="curve"/>
      <point x="1485.0" y="322.0" type="line"/>
      <point x="1342.0" y="228.0"/>
      <point x="1243.0" y="211.0"/>
      <point x="1064.0" y="217.0" type="curve"/>
      <point x="1154.0" y="76.0" type="line"/>
      <point x="1499.0" y="1044.0" type="line"/>
      <point x="1135.0" y="1044.0" type="line"/>
      <point x="987.0" y="847.0" type="line"/>
      <point x="917.0" y="688.0" type="line" smooth="yes"/>
      <point x="832.0" y="495.0"/>
      <point x="673.0" y="237.0"/>
      <point x="563.0" y="237.0" type="curve" smooth="yes"/>
      <point x="512.0" y="237.0"/>
      <point x="486.0" y="259.0"/>
      <point x="486.0" y="307.0" type="curve" smooth="yes"/>
      <point x="486.0" y="488.0"/>
      <point x="720.0" y="839.0"/>
      <point x="862.0" y="839.0" type="curve" smooth="yes"/>
      <point x="916.0" y="839.0"/>
      <point x="956.0" y="818.0"/>
      <point x="994.0" y="719.0" type="curve"/>
      <point x="1024.0" y="770.0" type="line"/>
      <point x="974.0" y="977.0"/>
      <point x="884.0" y="1074.0"/>
      <point x="729.0" y="1074.0" type="curve" smooth="yes"/>
      <point x="402.0" y="1074.0"/>
      <point x="29.0" y="651.0"/>
      <point x="29.0" y="269.0" type="curve" smooth="yes"/>
      <point x="29.0" y="63.0"/>
      <point x="185.0" y="-30.0"/>
      <point x="335.0" y="-30.0" type="curve" smooth="yes"/>
      <point x="515.0" y="-30.0"/>
      <point x="639.0" y="35.0"/>
      <point x="878.0" y="438.0" type="curve"/>
      <point x="912.0" y="438.0" type="line"/>
      <point x="798.0" y="161.0" type="line" smooth="yes"/>
      <point x="738.0" y="16.0"/>
      <point x="785.0" y="-30.0"/>
      <point x="947.0" y="-30.0" type="curve" smooth="yes"/>
      <point x="1038.0" y="-30.0"/>
      <point x="1136.0" y="-14.0"/>
      <point x="1241.0" y="31.0" type="curve"/>
      <point x="1223.0" y="56.0" type="line"/>
      <point x="1147.0" y="1.0" type="line" smooth="yes"/>
      <point x="947.0" y="-146.0"/>
      <point x="890.0" y="-212.0"/>
      <point x="890.0" y="-311.0" type="curve" smooth="yes"/>
      <point x="890.0" y="-394.0"/>
      <point x="938.0" y="-465.0"/>
      <point x="1062.0" y="-465.0" type="curve" smooth="yes"/>
      <point x="1128.0" y="-465.0"/>
      <point x="1198.0" y="-446.0"/>
      <point x="1306.0" y="-387.0" type="curve"/>
      <point x="1306.0" y="-277.0" type="line"/>
      <point x="1253.0" y="-296.0"/>
      <point x="1225.0" y="-303.0"/>
      <point x="1187.0" y="-303.0" type="curve" smooth="yes"/>
      <point x="1130.0" y="-303.0"/>
      <point x="1107.0" y="-287.0"/>
      <point x="1107.0" y="-242.0" type="curve" smooth="yes"/>
      <point x="1107.0" y="-198.0"/>
      <point x="1122.0" y="-153.0"/>
      <point x="1235.0" y="-53.0" type="curve" smooth="yes"/>
      <point x="1325.0" y="27.0" type="line" smooth="yes"/>
      <point x="1392.0" y="87.0"/>
      <point x="1471.0" y="161.0"/>
    </contour>
  </outline>
</glyph>
<glyph name="dcroat" format="2">
  <advance width="1553"/>
  <unicode hex="0111"/>
  <outline>
    <contour>
      <point x="992.0" y="719.0" type="curve"/>
      <point x="1022.0" y="770.0" type="line"/>
      <point x="972.0" y="977.0"/>
      <point x="884.0" y="1074.0"/>
      <point x="729.0" y="1074.0" type="curve" smooth="yes"/>
      <point x="402.0" y="1074.0"/>
      <point x="29.0" y="651.0"/>
      <point x="29.0" y="269.0" type="curve" smooth="yes"/>
      <point x="29.0" y="63.0"/>
      <point x="185.0" y="-30.0"/>
      <point x="333.0" y="-30.0" type="curve" smooth="yes"/>
      <point x="513.0" y="-30.0"/>
      <point x="637.0" y="35.0"/>
      <point x="876.0" y="438.0" type="curve"/>
      <point x="910.0" y="438.0" type="line"/>
      <point x="798.0" y="157.0" type="line" smooth="yes"/>
      <point x="740.0" y="11.0"/>
      <point x="794.0" y="-30.0"/>
      <point x="956.0" y="-30.0" type="curve" smooth="yes"/>
      <point x="1129.0" y="-30.0"/>
      <point x="1326.0" y="29.0"/>
      <point x="1553.0" y="231.0" type="curve"/>
      <point x="1494.0" y="322.0" type="line"/>
      <point x="1351.0" y="228.0"/>
      <point x="1252.0" y="211.0"/>
      <point x="1073.0" y="217.0" type="curve"/>
      <point x="1163.0" y="76.0" type="line"/>
      <point x="1671.0" y="1494.0" type="line"/>
      <point x="1606.0" y="1494.0" type="line"/>
      <point x="1115.0" y="1464.0" type="line"/>
      <point x="1087.0" y="1351.0" type="line"/>
      <point x="1111.0" y="1330.0"/>
      <point x="1128.0" y="1314.0"/>
      <point x="1148.0" y="1294.0" type="curve"/>
      <point x="927.0" y="690.0" type="line" smooth="yes"/>
      <point x="856.0" y="495.0"/>
      <point x="671.0" y="237.0"/>
      <point x="561.0" y="237.0" type="curve" smooth="yes"/>
      <point x="510.0" y="237.0"/>
      <point x="484.0" y="259.0"/>
      <point x="484.0" y="307.0" type="curve" smooth="yes"/>
      <point x="484.0" y="488.0"/>
      <point x="718.0" y="839.0"/>
      <point x="860.0" y="839.0" type="curve" smooth="yes"/>
      <point x="915.0" y="839.0"/>
      <point x="953.0" y="820.0"/>
    </contour>
    <contour>
      <point x="834.0" y="1142.0" type="line"/>
      <point x="1724.0" y="1142.0" type="line"/>
      <point x="1763.0" y="1272.0" type="line"/>
      <point x="873.0" y="1272.0" type="line"/>
    </contour>
  </outline>
</glyph>
<glyph name="eogonek" format="2">
  <advance width="1259"/>
  <unicode hex="0119"/>
  <outline>
    <contour>
      <point x="1037.0" y="213.0" type="line" smooth="yes"/>
      <point x="1077.0" y="265.0"/>
      <point x="1111.0" y="323.0"/>
      <point x="1146.0" y="402.0" type="curve"/>
      <point x="1037.0" y="402.0" type="line"/>
      <point x="949.0" y="291.0"/>
      <point x="848.0" y="251.0"/>
      <point x="719.0" y="251.0" type="curve" smooth="yes"/>
      <point x="553.0" y="251.0"/>
      <point x="510.0" y="308.0"/>
      <point x="510.0" y="482.0" type="curve" smooth="yes"/>
      <point x="510.0" y="791.0"/>
      <point x="655.0" y="909.0"/>
      <point x="793.0" y="909.0" type="curve" smooth="yes"/>
      <point x="858.0" y="909.0"/>
      <point x="885.0" y="877.0"/>
      <point x="885.0" y="823.0" type="curve" smooth="yes"/>
      <point x="885.0" y="696.0"/>
      <point x="864.0" y="669.0"/>
      <point x="387.0" y="567.0" type="curve"/>
      <point x="380.0" y="459.0" type="line"/>
      <point x="633.0" y="480.0"/>
      <point x="923.0" y="516.0"/>
      <point x="1186.0" y="574.0" type="curve"/>
      <point x="1233.0" y="669.0"/>
      <point x="1248.0" y="745.0"/>
      <point x="1248.0" y="815.0" type="curve" smooth="yes"/>
      <point x="1248.0" y="958.0"/>
      <point x="1132.0" y="1074.0"/>
      <point x="838.0" y="1074.0" type="curve" smooth="yes"/>
      <point x="303.0" y="1074.0"/>
      <point x="61.0" y="726.0"/>
      <point x="61.0" y="362.0" type="curve" smooth="yes"/>
      <point x="61.0" y="119.0"/>
      <point x="214.0" y="-30.0"/>
      <point x="524.0" y="-30.0" type="curve" smooth="yes"/>
      <point x="643.0" y="-30.0"/>
      <point x="749.0" y="-9.0"/>
      <point x="843.0" y="42.0" type="curve"/>
      <point x="806.0" y="86.0" type="line"/>
      <point x="780.0" y="60.0" type="line" smooth="yes"/>
      <point x="605.0" y="-113.0"/>
      <point x="534.0" y="-208.0"/>
      <point x="534.0" y="-311.0" type="curve" smooth="yes"/>
      <point x="534.0" y="-394.0"/>
      <point x="582.0" y="-465.0"/>
      <point x="706.0" y="-465.0" type="curve" smooth="yes"/>
      <point x="772.0" y="-465.0"/>
      <point x="842.0" y="-446.0"/>
      <point x="950.0" y="-387.0" type="curve"/>
      <point x="950.0" y="-277.0" type="line"/>
      <point x="897.0" y="-296.0"/>
      <point x="869.0" y="-303.0"/>
      <point x="831.0" y="-303.0" type="curve" smooth="yes"/>
      <point x="774.0" y="-303.0"/>
      <point x="751.0" y="-287.0"/>
      <point x="751.0" y="-242.0" type="curve" smooth="yes"/>
      <point x="751.0" y="-198.0"/>
      <point x="785.0" y="-116.0"/>
      <point x="878.0" y="6.0" type="curve" smooth="yes"/>
    </contour>
  </outline>
</glyph>
<glyph name="OE" format="2">
  <advance width="2436"/>
  <unicode hex="0152"/>
  <outline>
    <contour>
      <point x="1309.0" y="1414.0" type="line"/>
      <point x="872.0" y="0.0" type="line"/>
      <point x="1382.0" y="0.0" type="line"/>
      <point x="1823.0" y="1414.0" type="line"/>
    </contour>
    <contour>
      <point x="1117.0" y="1414.0" type="line" smooth="yes"/>
      <point x="465.0" y="1414.0"/>
      <point x="130.0" y="1017.0"/>
      <point x="130.0" y="470.0" type="curve" smooth="yes"/>
      <point x="130.0" y="182.0"/>
      <point x="295.0" y="0.0"/>
      <point x="760.0" y="0.0" type="curve" smooth="yes"/>
      <point x="1867.0" y="0.0" type="line"/>
      <point x="1901.0" y="-103.0" type="line"/>
      <point x="2058.0" y="-103.0" type="line"/>
      <point x="2386.0" y="493.0" type="line"/>
      <point x="2191.0" y="493.0" type="line"/>
      <point x="1778.0" y="92.0" type="line"/>
      <point x="2027.0" y="234.0" type="line"/>
      <point x="849.0" y="234.0" type="line" smooth="yes"/>
      <point x="698.0" y="234.0"/>
      <point x="621.0" y="311.0"/>
      <point x="621.0" y="449.0" type="curve" smooth="yes"/>
      <point x="621.0" y="656.0"/>
      <point x="736.0" y="1180.0"/>
      <point x="1066.0" y="1180.0" type="curve" smooth="yes"/>
      <point x="2298.0" y="1180.0" type="line"/>
      <point x="2246.0" y="1329.0" type="line"/>
      <point x="2246.0" y="991.0" type="line"/>
      <point x="2440.0" y="991.0" type="line"/>
      <point x="2563.0" y="1512.0" type="line"/>
      <point x="2428.0" y="1512.0" type="line"/>
      <point x="2292.0" y="1414.0" type="line"/>
    </contour>
    <contour>
      <point x="1944.0" y="480.0" type="line"/>
      <point x="2022.0" y="735.0" type="line"/>
      <point x="2100.0" y="990.0" type="line"/>
      <point x="1928.0" y="990.0" type="line"/>
      <point x="1865.0" y="839.0" type="line"/>
      <point x="1404.0" y="839.0" type="line"/>
      <point x="1341.0" y="635.0" type="line"/>
      <point x="1804.0" y="635.0" type="line"/>
      <point x="1772.0" y="480.0" type="line"/>
    </contour>
  </outline>
</glyph>
<glyph name="Tbar" format="2">
  <advance width="1719"/>
  <unicode hex="0166"/>
  <outline>
    <contour>
      <point x="312.0" y="536.0" type="line"/>
      <point x="1427.0" y="536.0" type="line"/>
      <point x="1495.0" y="758.0" type="line"/>
      <point x="380.0" y="758.0" type="line"/>
    </contour>
    <contour>
      <point x="1634.0" y="1180.0" type="line"/>
      <point x="1542.0" y="1268.0" type="line"/>
      <point x="1606.0" y="858.0" type="line"/>
      <point x="1791.0" y="858.0" type="line"/>
      <point x="1873.0" y="1514.0" type="line"/>
      <point x="1705.0" y="1514.0" type="line"/>
      <point x="1551.0" y="1374.0" type="line"/>
      <point x="1735.0" y="1414.0" type="line"/>
      <point x="479.0" y="1414.0" type="line"/>
      <point x="647.0" y="1374.0" type="line"/>
      <point x="581.0" y="1514.0" type="line"/>
      <point x="408.0" y="1514.0" type="line"/>
      <point x="149.0" y="858.0" type="line"/>
      <point x="351.0" y="858.0" type="line"/>
      <point x="661.0" y="1240.0" type="line"/>
      <point x="483.0" y="1180.0" type="line"/>
    </contour>
    <contour>
      <point x="850.0" y="1300.0" type="line"/>
      <point x="499.0" y="169.0" type="line"/>
      <point x="327.0" y="108.0" type="line"/>
      <point x="295.0" y="0.0" type="line"/>
      <point x="1128.0" y="0.0" type="line"/>
      <point x="1159.0" y="108.0" type="line"/>
      <point x="1010.0" y="165.0" type="line"/>
      <point x="1362.0" y="1300.0" type="line"/>
    </contour>
  </outline>
</glyph>
<glyph name="tbar" format="2">
  <advance width="1112"/>
  <unicode hex="0167"/>
  <outline>
    <contour>
      <point x="102.0" y="542.0" type="line"/>
      <point x="992.0" y="542.0" type="line"/>
      <point x="1031.0" y="672.0" type="line"/>
      <point x="141.0" y="672.0" type="line"/>
    </contour>
    <contour>
      <point x="149.0" y="862.0" type="line"/>
      <point x="1190.0" y="862.0" type="line"/>
      <point x="1190.0" y="1044.0" type="line"/>
      <point x="149.0" y="1044.0" type="line"/>
    </contour>
    <contour>
      <point x="685.0" y="307.0" type="curve" smooth="yes"/>
      <point x="685.0" y="340.0"/>
      <point x="694.0" y="403.0"/>
      <point x="760.0" y="599.0" type="curve" smooth="yes"/>
      <point x="1031.0" y="1336.0" type="line"/>
      <point x="569.0" y="1336.0" type="line"/>
      <point x="295.0" y="533.0" type="line" smooth="yes"/>
      <point x="238.0" y="367.0"/>
      <point x="212.0" y="256.0"/>
      <point x="212.0" y="174.0" type="curve" smooth="yes"/>
      <point x="212.0" y="31.0"/>
      <point x="284.0" y="-30.0"/>
      <point x="425.0" y="-30.0" type="curve" smooth="yes"/>
      <point x="555.0" y="-30.0"/>
      <point x="737.0" y="-3.0"/>
      <point x="1027.0" y="263.0" type="curve"/>
      <point x="955.0" y="356.0" type="line"/>
      <point x="824.0" y="268.0"/>
      <point x="777.0" y="259.0"/>
      <point x="738.0" y="259.0" type="curve" smooth="yes"/>
      <point x="703.0" y="259.0"/>
      <point x="685.0" y="266.0"/>
    </contour>
  </outline>
</glyph>
<glyph name="uni0259" format="2">
  <advance width="1260"/>
  <unicode hex="0259"/>
  <outline>
    <contour>
      <point x="469.0" y="135.0" type="curve" smooth="yes"/>
      <point x="404.0" y="135.0"/>
      <point x="377.0" y="167.0"/>
      <point x="377.0" y="221.0" type="curve" smooth="yes"/>
      <point x="377.0" y="348.0"/>
      <point x="398.0" y="375.0"/>
      <point x="875.0" y="477.0" type="curve"/>
      <point x="882.0" y="585.0" type="line"/>
      <point x="629.0" y="564.0"/>
      <point x="339.0" y="528.0"/>
      <point x="76.0" y="470.0" type="curve"/>
      <point x="29.0" y="375.0"/>
      <point x="14.0" y="299.0"/>
      <point x="14.0" y="229.0" type="curve" smooth="yes"/>
      <point x="14.0" y="86.0"/>
      <point x="130.0" y="-30.0"/>
      <point x="424.0" y="-30.0" type="curve" smooth="yes"/>
      <point x="959.0" y="-30.0"/>
      <point x="1201.0" y="318.0"/>
      <point x="1201.0" y="682.0" type="curve" smooth="yes"/>
      <point x="1201.0" y="925.0"/>
      <point x="1048.0" y="1074.0"/>
      <point x="738.0" y="1074.0" type="curve" smooth="yes"/>
      <point x="466.0" y="1074.0"/>
      <point x="260.0" y="963.0"/>
      <point x="116.0" y="642.0" type="curve"/>
      <point x="225.0" y="642.0" type="line"/>
      <point x="313.0" y="753.0"/>
      <point x="414.0" y="793.0"/>
      <point x="543.0" y="793.0" type="curve" smooth="yes"/>
      <point x="709.0" y="793.0"/>
      <point x="752.0" y="736.0"/>
      <point x="752.0" y="562.0" type="curve" smooth="yes"/>
      <point x="752.0" y="253.0"/>
      <point x="607.0" y="135.0"/>
    </contour>
  </outline>
</glyph>
<glyph name="uni02B9" format="2">
  <advance width="581"/>
  <unicode hex="02B9"/>
  <outline>
    <contour>
      <point x="189.0" y="800.0" type="line"/>
      <point x="428.0" y="800.0" type="line"/>
      <point x="754.0" y="1336.0" type="line"/>
      <point x="778.0" y="1414.0" type="line"/>
      <point x="401.0" y="1414.0" type="line"/>
    </contour>
  </outline>
</glyph>
<glyph name="uni0306" format="2">
  <unicode hex="0306"/>
  <anchor x="160" y="1044.0" name="_top"/>
  <anchor x="288" y="1464.0" name="top"/>
  <outline>
    <contour>
      <point x="246.0" y="1365.0" type="curve" smooth="yes"/>
      <point x="137.0" y="1365.0"/>
      <point x="103.0" y="1392.0"/>
      <point x="103.0" y="1464.0" type="curve"/>
      <point x="-60.0" y="1464.0" type="line"/>
      <point x="-99.0" y="1251.0"/>
      <point x="-27.0" y="1138.0"/>
      <point x="202.0" y="1138.0" type="curve" smooth="yes"/>
      <point x="416.0" y="1138.0"/>
      <point x="534.0" y="1219.0"/>
      <point x="636.0" y="1464.0" type="curve"/>
      <point x="449.0" y="1464.0" type="line"/>
      <point x="405.0" y="1392.0"/>
      <point x="354.0" y="1365.0"/>
    </contour>
  </outline>
</glyph>
<glyph name="uni0307" format="2">
  <unicode hex="0307"/>
  <anchor x="160" y="1044.0" name="_top"/>
  <anchor x="264" y="1387.0" name="top"/>
  <anchor x="238" y="1301.0" name="_mid"/>
  <outline>
    <contour>
      <point x="195.0" y="1144.0" type="curve" smooth="yes"/>
      <point x="386.0" y="1144.0"/>
      <point x="454.0" y="1238.0"/>
      <point x="454.0" y="1344.0" type="curve" smooth="yes"/>
      <point x="454.0" y="1416.0"/>
      <point x="400.0" y="1458.0"/>
      <point x="281.0" y="1458.0" type="curve" smooth="yes"/>
      <point x="90.0" y="1458.0"/>
      <point x="22.0" y="1364.0"/>
      <point x="22.0" y="1258.0" type="curve" smooth="yes"/>
      <point x="22.0" y="1186.0"/>
      <point x="76.0" y="1144.0"/>
    </contour>
  </outline>
</glyph>
<glyph name="uni0311" format="2">
  <unicode hex="0311"/>
  <anchor x="160" y="1044.0" name="_top"/>
  <anchor x="288" y="1464.0" name="top"/>
  <outline>
    <contour>
      <point x="231.0" y="1237.0" type="curve" smooth="yes"/>
      <point x="340.0" y="1237.0"/>
      <point x="374.0" y="1210.0"/>
      <point x="374.0" y="1138.0" type="curve"/>
      <point x="537.0" y="1138.0" type="line"/>
      <point x="576.0" y="1351.0"/>
      <point x="504.0" y="1464.0"/>
      <point x="275.0" y="1464.0" type="curve" smooth="yes"/>
      <point x="61.0" y="1464.0"/>
      <point x="-57.0" y="1383.0"/>
      <point x="-159.0" y="1138.0" type="curve"/>
      <point x="28.0" y="1138.0" type="line"/>
      <point x="72.0" y="1210.0"/>
      <point x="123.0" y="1237.0"/>
    </contour>
  </outline>
</glyph>
<glyph name="dotbelowcomb" format="2">
  <unicode hex="0323"/>
  <anchor x="-160" y="0" name="_bottom"/>
  <anchor x="-302" y="-465.0" name="bottom"/>
  <outline>
    <contour>
      <point x="-269.0" y="-374.0" type="curve" smooth="yes"/>
      <point x="-78.0" y="-374.0"/>
      <point x="-10.0" y="-280.0"/>
      <point x="-10.0" y="-174.0" type="curve" smooth="yes"/>
      <point x="-10.0" y="-102.0"/>
      <point x="-64.0" y="-60.0"/>
      <point x="-183.0" y="-60.0" type="curve" smooth="yes"/>
      <point x="-374.0" y="-60.0"/>
      <point x="-442.0" y="-154.0"/>
      <point x="-442.0" y="-260.0" type="curve" smooth="yes"/>
      <point x="-442.0" y="-332.0"/>
      <point x="-388.0" y="-374.0"/>
    </contour>
  </outline>
</glyph>
<glyph name="uni0327" format="2">
  <unicode hex="0327"/>
  <anchor x="-160" y="0" name="_bottom"/>
  <anchor x="-302" y="-465" name="bottom"/>
  <outline>
    <contour>
      <point x="-391.0" y="-465.0" type="curve" smooth="yes"/>
      <point x="-105.0" y="-465.0"/>
      <point x="-12.0" y="-368.0"/>
      <point x="-12.0" y="-226.0" type="curve" smooth="yes"/>
      <point x="-12.0" y="-147.0"/>
      <point x="-67.0" y="-87.0"/>
      <point x="-249.0" y="-65.0" type="curve"/>
      <point x="-281.0" y="-190.0" type="line"/>
      <point x="0.0" y="49.0" type="line"/>
      <point x="-156.0" y="49.0" type="line"/>
      <point x="-425.0" y="-184.0" type="line"/>
      <point x="-439.0" y="-229.0" type="line"/>
      <point x="-278.0" y="-240.0"/>
      <point x="-242.0" y="-258.0"/>
      <point x="-242.0" y="-291.0" type="curve" smooth="yes"/>
      <point x="-242.0" y="-333.0"/>
      <point x="-270.0" y="-356.0"/>
      <point x="-344.0" y="-356.0" type="curve" smooth="yes"/>
      <point x="-412.0" y="-356.0"/>
      <point x="-466.0" y="-312.0"/>
      <point x="-490.0" y="-312.0" type="curve" smooth="yes"/>
      <point x="-524.0" y="-312.0"/>
      <point x="-551.0" y="-344.0"/>
      <point x="-551.0" y="-387.0" type="curve" smooth="yes"/>
      <point x="-551.0" y="-443.0"/>
      <point x="-509.0" y="-465.0"/>
    </contour>
  </outline>
</glyph>
<glyph name="uni0328" format="2">
  <unicode hex="0328"/>
  <guideline x="-130" y="97" angle="73" identifier="WQB52mQ9Ai"/>
  <guideline x="53" y="-277" angle="0" identifier="xY7HFuQMLz"/>
  <guideline x="25" y="-387" angle="0" identifier="Ft6U5QFdPh"/>
  <guideline x="-113" y="-303" angle="0" identifier="g9h5pMA2LD"/>
  <anchor x="-160" y="0" name="_right"/>
  <outline>
    <contour>
      <point x="-309.0" y="-68.0" type="curve" smooth="yes"/>
      <point x="-130.0" y="97.0" type="line"/>
      <point x="-233.0" y="97.0" type="line"/>
      <point x="-407.0" y="-14.0" type="line" smooth="yes"/>
      <point x="-617.0" y="-148.0"/>
      <point x="-654.0" y="-212.0"/>
      <point x="-654.0" y="-311.0" type="curve" smooth="yes"/>
      <point x="-654.0" y="-394.0"/>
      <point x="-606.0" y="-465.0"/>
      <point x="-482.0" y="-465.0" type="curve" smooth="yes"/>
      <point x="-416.0" y="-465.0"/>
      <point x="-346.0" y="-446.0"/>
      <point x="-238.0" y="-387.0" type="curve"/>
      <point x="-238.0" y="-277.0" type="line"/>
      <point x="-291.0" y="-296.0"/>
      <point x="-319.0" y="-303.0"/>
      <point x="-357.0" y="-303.0" type="curve" smooth="yes"/>
      <point x="-414.0" y="-303.0"/>
      <point x="-437.0" y="-287.0"/>
      <point x="-437.0" y="-242.0" type="curve" smooth="yes"/>
      <point x="-437.0" y="-198.0"/>
      <point x="-420.0" y="-171.0"/>
    </contour>
  </outline>
</glyph>
<glyph name="endash" format="2">
  <advance width="1041"/>
  <unicode hex="2013"/>
  <outline>
    <contour>
      <point x="158.0" y="641.0" type="line"/>
      <point x="86.0" y="403.0" type="line"/>
      <point x="884.0" y="403.0" type="line"/>
      <point x="956.0" y="641.0" type="line"/>
    </contour>
  </outline>
</glyph>
<glyph name="emdash" format="2">
  <advance width="1354"/>
  <unicode hex="2014"/>
  <outline>
    <contour>
      <point x="158.0" y="641.0" type="line"/>
      <point x="86.0" y="403.0" type="line"/>
      <point x="1197.0" y="403.0" type="line"/>
      <point x="1270.0" y="641.0" type="line"/>
    </contour>
  </outline>
</glyph>
<glyph name="quoteleft" format="2">
  <advance width="650"/>
  <unicode hex="2018"/>
  <outline>
    <contour>
      <point x="794.0" y="1296.0" type="curve"/>
      <point x="738.0" y="1444.0" type="line"/>
      <point x="339.0" y="1307.0"/>
      <point x="212.0" y="1144.0"/>
      <point x="212.0" y="915.0" type="curve" smooth="yes"/>
      <point x="212.0" y="783.0"/>
      <point x="297.0" y="716.0"/>
      <point x="426.0" y="716.0" type="curve" smooth="yes"/>
      <point x="580.0" y="716.0"/>
      <point x="668.0" y="823.0"/>
      <point x="668.0" y="940.0" type="curve" smooth="yes"/>
      <point x="668.0" y="990.0"/>
      <point x="546.0" y="1038.0"/>
      <point x="546.0" y="1113.0" type="curve" smooth="yes"/>
      <point x="546.0" y="1168.0"/>
      <point x="586.0" y="1212.0"/>
    </contour>
  </outline>
</glyph>
<glyph name="guilsinglright" format="2">
  <advance width="843"/>
  <unicode hex="203A"/>
  <outline>
    <contour>
      <point x="367.0" y="499.0" type="line"/>
      <point x="404.0" y="619.0" type="line"/>
      <point x="-21.0" y="168.0" type="line"/>
      <point x="133.0" y="-29.0" type="line"/>
      <point x="702.0" y="383.0" type="line"/>
      <point x="788.0" y="663.0" type="line"/>
      <point x="441.0" y="1075.0" type="line"/>
      <point x="215.0" y="958.0" type="line"/>
    </contour>
  </outline>
</glyph>
<glyph name="fraction" format="2">
  <advance width="160"/>
  <unicode hex="2044"/>
  <outline>
    <contour>
      <point x="-675.0" y="0.0" type="line"/>
      <point x="-401.0" y="0.0" type="line"/>
      <point x="954.0" y="1414.0" type="line"/>
      <point x="681.0" y="1414.0" type="line"/>
    </contour>
  </outline>
</glyph>
<glyph name="lessequal" format="2">
  <advance width="1200"/>
  <unicode hex="2264"/>
  <guideline x="1247.0" y="1074" angle="3.8279635339646685" identifier="hmoa5foTD7"/>
  <outline>
    <contour>
      <point x="362.0" y="602.0" type="line"/>
      <point x="1155.0" y="775.0" type="line"/>
      <point x="1247.0" y="1074.0" type="line"/>
      <point x="214.0" y="804.0" type="line"/>
      <point x="119.0" y="491.0" type="line"/>
      <point x="986.0" y="221.0" type="line"/>
      <point x="1067.0" y="488.0" type="line"/>
      <point x="378.0" y="655.0" type="line"/>
    </contour>
    <contour>
      <point x="50.0" y="268.0" type="line"/>
      <point x="-32.0" y="0.0" type="line"/>
      <point x="918.0" y="0.0" type="line"/>
      <point x="1000.0" y="268.0" type="line"/>
    </contour>
  </outline>
</glyph>
<glyph name="f_f_i" format="2">
  <advance width="2536"/>
  <unicode hex="FB03"/>
  <outline>
    <contour>
      <point x="400.0" y="925.0" type="curve" smooth="yes"/>
      <point x="212.0" y="-143.0" type="line" smooth="yes"/>
      <point x="193" y="-248"/>
      <point x="149.0" y="-284.0"/>
      <point x="60.0" y="-284.0" type="curve" smooth="yes"/>
      <point x="23.0" y="-284.0"/>
      <point x="-1.0" y="-279.0"/>
      <point x="-24.0" y="-250.0" type="curve" smooth="yes"/>
      <point x="-47.0" y="-221.0"/>
      <point x="-54.0" y="-165.0"/>
      <point x="-57.0" y="-63.0" type="curve"/>
      <point x="-253.0" y="-63.0"/>
      <point x="-338.0" y="-122.0"/>
      <point x="-338.0" y="-241.0" type="curve" smooth="yes"/>
      <point x="-338.0" y="-390.0"/>
      <point x="-264.0" y="-465.0"/>
      <point x="-31.0" y="-465.0" type="curve" smooth="yes"/>
      <point x="291.0" y="-465.0"/>
      <point x="578" y="-229"/>
      <point x="728.0" y="419.0" type="curve" smooth="yes"/>
      <point x="876.0" y="1060.0" type="line" smooth="yes"/>
      <point x="910.0" y="1208.0"/>
      <point x="957.0" y="1252.0"/>
      <point x="1083.0" y="1252.0" type="curve" smooth="yes"/>
      <point x="1204.0" y="1252.0"/>
      <point x="1251.0" y="1219.0"/>
      <point x="1208.0" y="1043.0" type="curve"/>
      <point x="1508.0" y="1271.0" type="line"/>
      <point x="1438.0" y="1384.0"/>
      <point x="1349.0" y="1444.0"/>
      <point x="1079.0" y="1444.0" type="curve" smooth="yes"/>
      <point x="740.0" y="1444.0"/>
      <point x="465.0" y="1294.0"/>
    </contour>
    <contour>
      <point x="1190.0" y="975.0" type="curve" smooth="yes"/>
      <point x="986.0" y="-22.0" type="line" smooth="yes"/>
      <point x="952.0" y="-189.0"/>
      <point x="882.0" y="-244.0"/>
      <point x="748.0" y="-244.0" type="curve" smooth="yes"/>
      <point x="615.0" y="-244.0"/>
      <point x="537.0" y="-184.0"/>
      <point x="498.0" y="-3.0" type="curve"/>
      <point x="272.0" y="-176.0" type="line"/>
      <point x="345.0" y="-360.0"/>
      <point x="483.0" y="-425.0"/>
      <point x="697.0" y="-425.0" type="curve" smooth="yes"/>
      <point x="1022.0" y="-425.0"/>
      <point x="1296.0" y="-228.0"/>
      <point x="1450.0" y="329.0" type="curve" smooth="yes"/>
      <point x="1666.0" y="1110.0" type="line" smooth="yes"/>
      <point x="1705" y="1250"/>
      <point x="1775.0" y="1302.0"/>
      <point x="1941.0" y="1302.0" type="curve" smooth="yes"/>
      <point x="2032.0" y="1302.0"/>
      <point x="2084.0" y="1285.0"/>
      <point x="2108.0" y="1260.0" type="curve" smooth="yes"/>
      <point x="2132.0" y="1235.0"/>
      <point x="2143.0" y="1194.0"/>
      <point x="2142.0" y="1142.0" type="curve"/>
      <point x="2387.0" y="1142.0"/>
      <point x="2442.0" y="1193.0"/>
      <point x="2442.0" y="1298.0" type="curve" smooth="yes"/>
      <point x="2442.0" y="1416.0"/>
      <point x="2333.0" y="1494.0"/>
      <point x="2013.0" y="1494.0" type="curve" smooth="yes"/>
      <point x="1585.0" y="1494.0"/>
      <point x="1260" y="1317"/>
    </contour>
    <contour>
      <point x="129.0" y="862.0" type="line"/>
      <point x="2029.0" y="862.0" type="line"/>
      <point x="1973.0" y="954.0" type="line"/>
      <point x="1730.0" y="253.0" type="line" smooth="yes"/>
      <point x="1654.0" y="33.0"/>
      <point x="1693.0" y="-30.0"/>
      <point x="1865.0" y="-30.0" type="curve" smooth="yes"/>
      <point x="2063.0" y="-30.0"/>
      <point x="2268.0" y="37.0"/>
      <point x="2502.0" y="226.0" type="curve"/>
      <point x="2442.0" y="322.0" type="line"/>
      <point x="2296.0" y="242.0"/>
      <point x="2200.0" y="216.0"/>
      <point x="2005.0" y="231.0" type="curve"/>
      <point x="2144.0" y="91.0" type="line"/>
      <point x="2506.0" y="1074.0" type="line"/>
      <point x="2421.0" y="1074.0" type="line"/>
      <point x="2290.0" y="1054.0"/>
      <point x="2160.0" y="1044.0"/>
      <point x="2029.0" y="1044.0" type="curve" smooth="yes"/>
      <point x="129.0" y="1044.0" type="line"/>
    </contour>
  </outline>
</glyph>
<glyph name="Euro.lf" format="2">
  <advance width="1680"/>
  <outline>
    <contour>
      <point x="1238.0" y="626.0" type="line"/>
      <point x="144.0" y="626.0" type="line"/>
      <point x="91.0" y="451.0" type="line"/>
      <point x="1184.0" y="451.0" type="line"/>
    </contour>
    <contour>
      <point x="1348.0" y="986.0" type="line"/>
      <point x="254.0" y="986.0" type="line"/>
      <point x="201.0" y="811.0" type="line"/>
      <point x="1294.0" y="811.0" type="line"/>
    </contour>
    <contour>
      <point x="1196.0" y="1216.0" type="curve" smooth="yes"/>
      <point x="1429.0" y="1216.0"/>
      <point x="1508.0" y="1030.0"/>
      <point x="1530.0" y="1030.0" type="curve" smooth="yes"/>
      <point x="1677.0" y="1030.0"/>
      <point x="1744.0" y="1124.0"/>
      <point x="1744.0" y="1212.0" type="curve" smooth="yes"/>
      <point x="1744.0" y="1342.0"/>
      <point x="1624.0" y="1444.0"/>
      <point x="1277.0" y="1444.0" type="curve" smooth="yes"/>
      <point x="598.0" y="1444.0"/>
      <point x="354.0" y="943.0"/>
      <point x="354.0" y="485.0" type="curve" smooth="yes"/>
      <point x="354.0" y="145.0"/>
      <point x="560.0" y="-30.0"/>
      <point x="980.0" y="-30.0" type="curve" smooth="yes"/>
      <point x="1388.0" y="-30.0"/>
      <point x="1505.0" y="93.0"/>
      <point x="1505.0" y="242.0" type="curve" smooth="yes"/>
      <point x="1505.0" y="329.0"/>
      <point x="1450.0" y="384.0"/>
      <point x="1361.0" y="384.0" type="curve" smooth="yes"/>
      <point x="1324.0" y="384.0"/>
      <point x="1213.0" y="198.0"/>
      <point x="1008.0" y="198.0" type="curve" smooth="yes"/>
      <point x="883.0" y="198.0"/>
      <point x="808.0" y="256.0"/>
      <point x="808.0" y="444.0" type="curve" smooth="yes"/>
      <point x="808.0" y="743.0"/>
      <point x="913.0" y="1216.0"/>
    </contour>
  </outline>
</glyph>
<glyph name="caroncomb.alt" format="2">
  <anchor x="288" y="1464.0" name="_right"/>
  <outline>
    <contour>
      <point x="268.0" y="1044.0" type="line"/>
      <point x="453.0" y="1044.0" type="line"/>
      <point x="768.0" y="1404.0" type="line"/>
      <point x="787.0" y="1464.0" type="line"/>
      <point x="442.0" y="1464.0" type="line"/>
    </contour>
  </outline>
</glyph>
<glyph name="dollar.lf" format="2">
  <advance width="1372"/>
  <outline>
    <contour>
      <point x="537.0" y="-237.0" type="line"/>
      <point x="721.0" y="-237.0" type="line"/>
      <point x="1298.0" y="1650.0" type="line"/>
      <point x="1114.0" y="1650.0" type="line"/>
    </contour>
    <contour>
      <point x="207.0" y="-237.0" type="line"/>
      <point x="391.0" y="-237.0" type="line"/>
      <point x="968.0" y="1650.0" type="line"/>
      <point x="784.0" y="1650.0" type="line"/>
    </contour>
    <contour>
      <point x="498.0" y="198.0" type="curve" smooth="yes"/>
      <point x="313.0" y="198.0"/>
      <point x="233.0" y="384.0"/>
      <point x="213.0" y="384.0" type="curve" smooth="yes"/>
      <point x="78.0" y="384.0"/>
      <point x="15.0" y="285.0"/>
      <point x="15.0" y="195.0" type="curve" smooth="yes"/>
      <point x="15.0" y="63.0"/>
      <point x="130.0" y="-30.0"/>
      <point x="500.0" y="-30.0" type="curve" smooth="yes"/>
      <point x="1062.0" y="-30.0"/>
      <point x="1248.0" y="235.0"/>
      <point x="1248.0" y="521.0" type="curve" smooth="yes"/>
      <point x="1248.0" y="922.0"/>
      <point x="722.0" y="861.0"/>
      <point x="722.0" y="1067.0" type="curve" smooth="yes"/>
      <point x="722.0" y="1150.0"/>
      <point x="777.0" y="1216.0"/>
      <point x="941.0" y="1216.0" type="curve" smooth="yes"/>
      <point x="1148.0" y="1216.0"/>
      <point x="1206.0" y="1030.0"/>
      <point x="1234.0" y="1030.0" type="curve" smooth="yes"/>
      <point x="1362.0" y="1030.0"/>
      <point x="1454.0" y="1115.0"/>
      <point x="1454.0" y="1232.0" type="curve" smooth="yes"/>
      <point x="1454.0" y="1375.0"/>
      <point x="1269.0" y="1444.0"/>
      <point x="989.0" y="1444.0" type="curve" smooth="yes"/>
      <point x="418.0" y="1444.0"/>
      <point x="245.0" y="1171.0"/>
      <point x="245.0" y="902.0" type="curve" smooth="yes"/>
      <point x="245.0" y="517.0"/>
      <point x="778.0" y="596.0"/>
      <point x="778.0" y="372.0" type="curve" smooth="yes"/>
      <point x="778.0" y="279.0"/>
      <point x="699.0" y="198.0"/>
    </contour>
  </outline>
</glyph>
<glyph name="five.lf" format="2">
  <advance width="1250"/>
  <outline>
    <contour>
      <point x="378.0" y="1030.0" type="line"/>
      <point x="1168.0" y="1030.0" type="line"/>
      <point x="1356.0" y="1453.0" type="line"/>
      <point x="1047.0" y="1414.0" type="line"/>
      <point x="485.0" y="1414.0" type="line"/>
      <point x="147.0" y="589.0" type="line"/>
      <point x="619.0" y="514.0"/>
      <point x="773.0" y="443.0"/>
      <point x="773.0" y="329.0" type="curve" smooth="yes"/>
      <point x="773.0" y="207.0"/>
      <point x="672.0" y="156.0"/>
      <point x="501.0" y="156.0" type="curve" smooth="yes"/>
      <point x="369.0" y="156.0"/>
      <point x="252.0" y="420.0"/>
      <point x="223.0" y="420.0" type="curve" smooth="yes"/>
      <point x="76.0" y="420.0"/>
      <point x="12.0" y="340.0"/>
      <point x="12.0" y="241.0" type="curve" smooth="yes"/>
      <point x="12.0" y="69.0"/>
      <point x="153.0" y="-30.0"/>
      <point x="479.0" y="-30.0" type="curve" smooth="yes"/>
      <point x="913.0" y="-30.0"/>
      <point x="1141.0" y="199.0"/>
      <point x="1141.0" y="476.0" type="curve" smooth="yes"/>
      <point x="1141.0" y="696.0"/>
      <point x="1029.0" y="852.0"/>
      <point x="431.0" y="959.0" type="curve"/>
      <point x="376.0" y="724.0" type="line"/>
      <point x="691.0" y="1264.0" type="line"/>
    </contour>
  </outline>
</glyph>
<glyph name="four.lf" format="2">
  <advance width="1503"/>
  <outline>
    <contour>
      <point x="904.0" y="1297.0" type="line"/>
      <point x="514.0" y="172.0" type="line"/>
      <point x="295.0" y="100.0" type="line"/>
      <point x="266.0" y="0.0" type="line"/>
      <point x="1241.0" y="0.0" type="line"/>
      <point x="1270.0" y="100.0" type="line"/>
      <point x="1061.0" y="173.0" type="line"/>
      <point x="1442.0" y="1414.0" type="line"/>
      <point x="854.0" y="1414.0" type="line"/>
      <point x="120.0" y="722.0" type="line"/>
      <point x="23.0" y="383.0" type="line"/>
      <point x="1362.0" y="383.0" type="line"/>
      <point x="1501.0" y="681.0" type="line"/>
      <point x="1285.0" y="652.0" type="line"/>
      <point x="177.0" y="652.0" type="line"/>
      <point x="224.0" y="558.0" type="line"/>
      <point x="978.0" y="1256.0" type="line"/>
    </contour>
  </outline>
</glyph>
<glyph name="gravecomb.case" format="2">
  <anchor x="273" y="1414.0" name="_UCtop"/>
  <anchor x="434" y="1941.0" name="UCtop"/>
  <outline>
    <contour>
      <point x="426.0" y="1544.0" type="line"/>
      <point x="330.0" y="1870.0" type="line"/>
      <point x="-38.0" y="1870.0" type="line"/>
      <point x="-61.0" y="1796.0" type="line"/>
      <point x="235.0" y="1544.0" type="line"/>
    </contour>
  </outline>
</glyph>
<glyph name="hookabovecomb.case" format="2">
  <anchor x="273" y="1414.0" name="_UCtop"/>
  <anchor x="412" y="1870.0" name="UCtop"/>
  <outline>
    <contour>
      <point x="161.0" y="1731.0" type="line"/>
      <point x="358.0" y="1739.0"/>
      <point x="388.0" y="1723.0"/>
      <point x="388.0" y="1697.0" type="curve" smooth="yes"/>
      <point x="388.0" y="1668.0"/>
      <point x="374.0" y="1647.0"/>
      <point x="235.0" y="1630.0" type="curve"/>
      <point x="220.0" y="1525.0" type="line"/>
      <point x="562.0" y="1561.0"/>
      <point x="642.0" y="1649.0"/>
      <point x="642.0" y="1786.0" type="curve" smooth="yes"/>
      <point x="642.0" y="1876.0"/>
      <point x="573.0" y="1934.0"/>
      <point x="225.0" y="1930.0" type="curve"/>
    </contour>
  </outline>
</glyph>
<glyph name="one.lf" format="2">
  <advance width="1175"/>
  <outline>
    <contour>
      <point x="307.0" y="172.0" type="line"/>
      <point x="43.0" y="100.0" type="line"/>
      <point x="14.0" y="0.0" type="line"/>
      <point x="989.0" y="0.0" type="line"/>
      <point x="1018.0" y="100.0" type="line"/>
      <point x="809.0" y="173.0" type="line"/>
      <point x="1190.0" y="1414.0" type="line"/>
      <point x="795.0" y="1414.0" type="line"/>
      <point x="205.0" y="1159.0" type="line"/>
      <point x="251.0" y="965.0" type="line"/>
      <point x="743.0" y="1095.0" type="line"/>
      <point x="652.0" y="1297.0" type="line"/>
    </contour>
  </outline>
</glyph>
<glyph name="peseta.lf" format="2">
  <advance width="2086"/>
  <outline>
    <contour>
      <point x="1249.0" y="311.0" type="curve" smooth="yes"/>
      <point x="1507.0" y="1153.0" type="line"/>
      <point x="1382.0" y="1153.0" type="line"/>
      <point x="1270.0" y="958.0"/>
      <point x="1225.0" y="920.0"/>
      <point x="1081.0" y="842.0" type="curve"/>
      <point x="1044.0" y="720.0" type="line"/>
      <point x="1117.0" y="720.0" type="line"/>
      <point x="973.0" y="249.0" type="line" smooth="yes"/>
      <point x="918.0" y="70.0"/>
      <point x="969.0" y="-20.0"/>
      <point x="1107.0" y="-20.0" type="curve" smooth="yes"/>
      <point x="1177.0" y="-20.0"/>
      <point x="1240.0" y="-4.0"/>
      <point x="1296.0" y="36.0" type="curve"/>
      <point x="1352.0" y="220.0" type="line"/>
      <point x="1323.0" y="207.0"/>
      <point x="1299.0" y="202.0"/>
      <point x="1274.0" y="202.0" type="curve" smooth="yes"/>
      <point x="1229.0" y="202.0"/>
      <point x="1223.0" y="226.0"/>
    </contour>
    <contour>
      <point x="1261.0" y="720.0" type="line"/>
      <point x="1481.0" y="720.0" type="line"/>
      <point x="1549.0" y="944.0" type="line"/>
      <point x="1330.0" y="944.0" type="line"/>
    </contour>
    <contour>
      <point x="467.0" y="1265.0" type="line"/>
      <point x="125.0" y="149.0" type="line"/>
      <point x="25.0" y="100.0" type="line"/>
      <point x="-6.0" y="0.0" type="line"/>
      <point x="468.0" y="0.0" type="line"/>
      <point x="498.0" y="100.0" type="line"/>
      <point x="399.0" y="149.0" type="line"/>
      <point x="786.0" y="1414.0" type="line"/>
      <point x="427.0" y="1414.0" type="line"/>
      <point x="396.0" y="1314.0" type="line"/>
    </contour>
    <contour>
      <point x="1884.0" y="976.0" type="curve" smooth="yes"/>
      <point x="1655.0" y="976.0"/>
      <point x="1541.0" y="802.0"/>
      <point x="1541.0" y="596.0" type="curve" smooth="yes"/>
      <point x="1541.0" y="420.0"/>
      <point x="1673.0" y="387.0"/>
      <point x="1673.0" y="282.0" type="curve" smooth="yes"/>
      <point x="1673.0" y="198.0"/>
      <point x="1626.0" y="157.0"/>
      <point x="1548.0" y="157.0" type="curve" smooth="yes"/>
      <point x="1511.0" y="157.0"/>
      <point x="1478.0" y="165.0"/>
      <point x="1458.0" y="176.0" type="curve"/>
      <point x="1546.0" y="57.0" type="line"/>
      <point x="1537.0" y="289.0" type="line"/>
      <point x="1449.0" y="289.0" type="line"/>
      <point x="1384.0" y="7.0" type="line"/>
      <point x="1420.0" y="-9.0"/>
      <point x="1503.0" y="-20.0"/>
      <point x="1559.0" y="-20.0" type="curve" smooth="yes"/>
      <point x="1782.0" y="-20.0"/>
      <point x="1907.0" y="129.0"/>
      <point x="1907.0" y="386.0" type="curve" smooth="yes"/>
      <point x="1907.0" y="578.0"/>
      <point x="1774.0" y="594.0"/>
      <point x="1774.0" y="702.0" type="curve" smooth="yes"/>
      <point x="1774.0" y="766.0"/>
      <point x="1808.0" y="809.0"/>
      <point x="1877.0" y="809.0" type="curve" smooth="yes"/>
      <point x="1901.0" y="809.0"/>
      <point x="1930.0" y="797.0"/>
      <point x="1955.0" y="780.0" type="curve"/>
      <point x="1898.0" y="905.0" type="line"/>
      <point x="1897.0" y="701.0" type="line"/>
      <point x="1983.0" y="701.0" type="line"/>
      <point x="2046.0" y="948.0" type="line"/>
      <point x="2011.0" y="968.0"/>
      <point x="1955.0" y="976.0"/>
    </contour>
    <contour>
      <point x="637.0" y="725.0" type="curve" smooth="yes"/>
      <point x="490.0" y="725.0" type="line"/>
      <point x="335.0" y="479.0" type="line"/>
      <point x="652.0" y="479.0" type="line" smooth="yes"/>
      <point x="917.0" y="479.0"/>
      <point x="1103.0" y="843.0"/>
      <point x="1103.0" y="1167.0" type="curve" smooth="yes"/>
      <point x="1103.0" y="1333.0"/>
      <point x="1026.0" y="1414.0"/>
      <point x="878.0" y="1414.0" type="curve" smooth="yes"/>
      <point x="638.0" y="1414.0" type="line"/>
      <point x="621.0" y="1154.0" type="line"/>
      <point x="781.0" y="1154.0" type="line" smooth="yes"/>
      <point x="812.0" y="1154.0"/>
      <point x="826.0" y="1137.0"/>
      <point x="826.0" y="1097.0" type="curve" smooth="yes"/>
      <point x="826.0" y="951.0"/>
      <point x="749.0" y="725.0"/>
    </contour>
  </outline>
</glyph>
<glyph name="three.lf" format="2">
  <advance width="1360"/>
  <outline>
    <contour>
      <point x="487.0" y="156.0" type="curve" smooth="yes"/>
      <point x="355.0" y="156.0"/>
      <point x="238.0" y="420.0"/>
      <point x="209.0" y="420.0" type="curve" smooth="yes"/>
      <point x="62.0" y="420.0"/>
      <point x="-2.0" y="340.0"/>
      <point x="-2.0" y="231.0" type="curve" smooth="yes"/>
      <point x="-2.0" y="69.0"/>
      <point x="139.0" y="-30.0"/>
      <point x="476.0" y="-30.0" type="curve" smooth="yes"/>
      <point x="1011.0" y="-30.0"/>
      <point x="1255.0" y="212.0"/>
      <point x="1255.0" y="488.0" type="curve" smooth="yes"/>
      <point x="1255.0" y="689.0"/>
      <point x="1125.0" y="798.0"/>
      <point x="879.0" y="814.0" type="curve"/>
      <point x="879.0" y="808.0" type="line"/>
      <point x="1125.0" y="808.0"/>
      <point x="1306.0" y="936.0"/>
      <point x="1306.0" y="1146.0" type="curve" smooth="yes"/>
      <point x="1306.0" y="1314.0"/>
      <point x="1187.0" y="1444.0"/>
      <point x="873.0" y="1444.0" type="curve" smooth="yes"/>
      <point x="559.0" y="1444.0"/>
      <point x="367.0" y="1304.0"/>
      <point x="250.0" y="1006.0" type="curve"/>
      <point x="417.0" y="925.0" type="line"/>
      <point x="501.0" y="1087.0"/>
      <point x="607.0" y="1126.0"/>
      <point x="719.0" y="1126.0" type="curve" smooth="yes"/>
      <point x="819.0" y="1126.0"/>
      <point x="887.0" y="1094.0"/>
      <point x="887.0" y="982.0" type="curve" smooth="yes"/>
      <point x="887.0" y="854.0"/>
      <point x="795.0" y="804.0"/>
      <point x="563.0" y="795.0" type="curve"/>
      <point x="518.0" y="601.0" type="line"/>
      <point x="612.0" y="601.0" type="line" smooth="yes"/>
      <point x="717.0" y="601.0"/>
      <point x="754.0" y="552.0"/>
      <point x="754.0" y="437.0" type="curve" smooth="yes"/>
      <point x="754.0" y="299.0"/>
      <point x="702.0" y="156.0"/>
    </contour>
  </outline>
</glyph>
<glyph name="uni0302_gravecomb" format="2">
  <anchor x="160" y="1044.0" name="_top"/>
  <outline>
    <contour>
      <point x="-114.0" y="1335.0" type="line"/>
      <point x="-152.0" y="1602.0" type="line"/>
      <point x="-501.0" y="1602.0" type="line"/>
      <point x="-521.0" y="1537.0" type="line"/>
      <point x="-289.0" y="1335.0" type="line"/>
    </contour>
    <contour>
      <point x="-213.0" y="1138.0" type="line"/>
      <point x="64.0" y="1138.0" type="line"/>
      <point x="292.0" y="1295.0" type="line"/>
      <point x="209.0" y="1295.0" type="line"/>
      <point x="341.0" y="1138.0" type="line"/>
      <point x="589.0" y="1138.0" type="line"/>
      <point x="442.0" y="1464.0" type="line"/>
      <point x="134.0" y="1464.0" type="line"/>
    </contour>
  </outline>
</glyph>
<glyph name="uni0302_hookabovecomb" format="2">
  <anchor x="160" y="1044.0" name="_top"/>
  <outline>
    <contour>
      <point x="627.0" y="1411.0" type="curve"/>
      <point x="608.0" y="1298.0" type="line"/>
      <point x="918.7138152704586" y="1330.3456022205842"/>
      <point x="999.0" y="1441.0"/>
      <point x="999.0" y="1575.0" type="curve" smooth="yes"/>
      <point x="999.0" y="1681.0"/>
      <point x="912.0" y="1739.0"/>
      <point x="583.0" y="1734.0" type="curve"/>
      <point x="520.0" y="1535.0" type="line"/>
      <point x="710.0" y="1543.0"/>
      <point x="740.0" y="1518.0"/>
      <point x="740.0" y="1485.0" type="curve" smooth="yes"/>
      <point x="740.0" y="1446.0"/>
      <point x="719.5408322914226" y="1421.282314699047"/>
    </contour>
    <contour>
      <point x="-213.0" y="1138.0" type="line"/>
      <point x="64.0" y="1138.0" type="line"/>
      <point x="292.0" y="1295.0" type="line"/>
      <point x="209.0" y="1295.0" type="line"/>
      <point x="341.0" y="1138.0" type="line"/>
      <point x="589.0" y="1138.0" type="line"/>
      <point x="442.0" y="1464.0" type="line"/>
      <point x="134.0" y="1464.0" type="line"/>
    </contour>
  </outline>
</glyph>
<glyph name="uni0302_tildecomb.case" format="2">
  <anchor x="273" y="1414.0" name="_UCtop"/>
  <outline>
    <contour>
      <point x="416.0" y="1655.0" type="line"/>
      <point x="300.0" y="1655.0" type="line"/>
      <point x="466.0" y="1515.0" type="line"/>
      <point x="677.0" y="1515.0" type="line"/>
      <point x="560.0" y="1748.0" type="line"/>
      <point x="189.0" y="1748.0" type="line"/>
      <point x="-70.0" y="1515.0" type="line"/>
      <point x="167.0" y="1515.0" type="line"/>
    </contour>
    <contour>
      <point x="794.0" y="2004.0" type="curve"/>
      <point x="619.0" y="2004.0" type="line"/>
      <point x="602.0" y="1960.0"/>
      <point x="582.0" y="1952.0"/>
      <point x="544.0" y="1952.0" type="curve" smooth="yes"/>
      <point x="482.0" y="1952.0"/>
      <point x="395.0" y="2004.0"/>
      <point x="289.0" y="2004.0" type="curve" smooth="yes"/>
      <point x="144.0" y="2004.0"/>
      <point x="93.0" y="1956.0"/>
      <point x="39.0" y="1796.0" type="curve"/>
      <point x="214.0" y="1796.0" type="line"/>
      <point x="231.0" y="1840.0"/>
      <point x="251.0" y="1848.0"/>
      <point x="289.0" y="1848.0" type="curve" smooth="yes"/>
      <point x="351.0" y="1848.0"/>
      <point x="438.0" y="1796.0"/>
      <point x="544.0" y="1796.0" type="curve" smooth="yes"/>
      <point x="689.0" y="1796.0"/>
      <point x="740.0" y="1844.0"/>
    </contour>
  </outline>
</glyph>
<glyph name="uni0302_tildecomb" format="2">
  <anchor x="160" y="1044.0" name="_top"/>
  <outline>
    <contour>
      <point x="292.0" y="1249.0" type="line"/>
      <point x="176.0" y="1249.0" type="line"/>
      <point x="342.0" y="1109.0" type="line"/>
      <point x="553.0" y="1109.0" type="line"/>
      <point x="436.0" y="1342.0" type="line"/>
      <point x="65.0" y="1342.0" type="line"/>
      <point x="-194.0" y="1109.0" type="line"/>
      <point x="43.0" y="1109.0" type="line"/>
    </contour>
    <contour>
      <point x="670.0" y="1598.0" type="curve"/>
      <point x="495.0" y="1598.0" type="line"/>
      <point x="478.0" y="1554.0"/>
      <point x="458.0" y="1546.0"/>
      <point x="420.0" y="1546.0" type="curve" smooth="yes"/>
      <point x="358.0" y="1546.0"/>
      <point x="271.0" y="1598.0"/>
      <point x="165.0" y="1598.0" type="curve" smooth="yes"/>
      <point x="20.0" y="1598.0"/>
      <point x="-31.0" y="1550.0"/>
      <point x="-85.0" y="1390.0" type="curve"/>
      <point x="90.0" y="1390.0" type="line"/>
      <point x="107.0" y="1434.0"/>
      <point x="127.0" y="1442.0"/>
      <point x="165.0" y="1442.0" type="curve" smooth="yes"/>
      <point x="227.0" y="1442.0"/>
      <point x="314.0" y="1390.0"/>
      <point x="420.0" y="1390.0" type="curve" smooth="yes"/>
      <point x="565.0" y="1390.0"/>
      <point x="616.0" y="1438.0"/>
    </contour>
  </outline>
</glyph>
<glyph name="uni0306.case" format="2">
  <anchor x="273" y="1414.0" name="_UCtop"/>
  <anchor x="412" y="1870.0" name="UCtop"/>
  <outline>
    <contour>
      <point x="370.0" y="1771.0" type="curve" smooth="yes"/>
      <point x="261.0" y="1771.0"/>
      <point x="227.0" y="1798.0"/>
      <point x="227.0" y="1870.0" type="curve"/>
      <point x="64.0" y="1870.0" type="line"/>
      <point x="25.0" y="1657.0"/>
      <point x="97.0" y="1544.0"/>
      <point x="326.0" y="1544.0" type="curve" smooth="yes"/>
      <point x="540.0" y="1544.0"/>
      <point x="658.0" y="1625.0"/>
      <point x="760.0" y="1870.0" type="curve"/>
      <point x="573.0" y="1870.0" type="line"/>
      <point x="529.0" y="1798.0"/>
      <point x="478.0" y="1771.0"/>
    </contour>
  </outline>
</glyph>
<glyph name="uni0306_acutecomb" format="2">
  <anchor x="160" y="1044.0" name="_top"/>
  <outline>
    <contour>
      <point x="143.0" y="1315.0" type="line"/>
      <point x="286.0" y="1315.0" type="line"/>
      <point x="593.0" y="1555.0" type="line"/>
      <point x="606.0" y="1598.0" type="line"/>
      <point x="307.0" y="1598.0" type="line"/>
    </contour>
    <contour>
      <point x="213.0" y="1262.0" type="curve" smooth="yes"/>
      <point x="92.0" y="1262.0"/>
      <point x="61.0" y="1286.0"/>
      <point x="63.0" y="1336.0" type="curve"/>
      <point x="-97.0" y="1336.0" type="line"/>
      <point x="-124.0" y="1150.0"/>
      <point x="-18.0" y="1109.0"/>
      <point x="196.0" y="1109.0" type="curve" smooth="yes"/>
      <point x="399.0" y="1109.0"/>
      <point x="508.0" y="1151.0"/>
      <point x="595.0" y="1336.0" type="curve"/>
      <point x="409.0" y="1336.0" type="line"/>
      <point x="378.0" y="1280.0"/>
      <point x="323.0" y="1262.0"/>
    </contour>
  </outline>
</glyph>
<glyph name="uni0306_gravecomb.case" format="2">
  <anchor x="273" y="1414.0" name="_UCtop"/>
  <outline>
    <contour>
      <point x="422.0" y="1721.0" type="line"/>
      <point x="397.0" y="2004.0" type="line"/>
      <point x="132.0" y="2004.0" type="line"/>
      <point x="119.0" y="1961.0" type="line"/>
      <point x="293.0" y="1721.0" type="line"/>
    </contour>
    <contour>
      <point x="337.0" y="1668.0" type="curve" smooth="yes"/>
      <point x="216.0" y="1668.0"/>
      <point x="185.0" y="1692.0"/>
      <point x="187.0" y="1742.0" type="curve"/>
      <point x="27.0" y="1742.0" type="line"/>
      <point x="0.0" y="1556.0"/>
      <point x="106.0" y="1515.0"/>
      <point x="320.0" y="1515.0" type="curve" smooth="yes"/>
      <point x="523.0" y="1515.0"/>
      <point x="632.0" y="1557.0"/>
      <point x="719.0" y="1742.0" type="curve"/>
      <point x="533.0" y="1742.0" type="line"/>
      <point x="502.0" y="1686.0"/>
      <point x="447.0" y="1668.0"/>
    </contour>
  </outline>
</glyph>
<glyph name="uni0306_hookabovecomb.case" format="2">
  <anchor x="273" y="1414.0" name="_UCtop"/>
  <outline>
    <contour>
      <point x="337.0" y="1668.0" type="curve" smooth="yes"/>
      <point x="216.0" y="1668.0"/>
      <point x="185.0" y="1692.0"/>
      <point x="187.0" y="1742.0" type="curve"/>
      <point x="27.0" y="1742.0" type="line"/>
      <point x="0.0" y="1556.0"/>
      <point x="106.0" y="1515.0"/>
      <point x="320.0" y="1515.0" type="curve" smooth="yes"/>
      <point x="523.0" y="1515.0"/>
      <point x="632.0" y="1557.0"/>
      <point x="719.0" y="1742.0" type="curve"/>
      <point x="533.0" y="1742.0" type="line"/>
      <point x="502.0" y="1686.0"/>
      <point x="447.0" y="1668.0"/>
    </contour>
    <contour>
      <point x="296.0" y="1719.0" type="line"/>
      <point x="520.0" y="1730.0"/>
      <point x="595.0" y="1803.0"/>
      <point x="595.0" y="1916.0" type="curve" smooth="yes"/>
      <point x="595.0" y="2006.0"/>
      <point x="522.0" y="2053.0"/>
      <point x="307.0" y="2056.0" type="curve"/>
      <point x="263.0" y="1902.0" type="line"/>
      <point x="406.0" y="1902.0"/>
      <point x="435.0" y="1893.0"/>
      <point x="435.0" y="1871.0" type="curve" smooth="yes"/>
      <point x="435.0" y="1846.0"/>
      <point x="420.0" y="1830.0"/>
      <point x="315.0" y="1824.0" type="curve"/>
    </contour>
  </outline>
</glyph>
<glyph name="uni0306_tildecomb.case" format="2">
  <anchor x="273" y="1414.0" name="_UCtop"/>
  <outline>
    <contour>
      <point x="337.0" y="1668.0" type="curve" smooth="yes"/>
      <point x="216.0" y="1668.0"/>
      <point x="185.0" y="1692.0"/>
      <point x="187.0" y="1742.0" type="curve"/>
      <point x="27.0" y="1742.0" type="line"/>
      <point x="0.0" y="1556.0"/>
      <point x="106.0" y="1515.0"/>
      <point x="320.0" y="1515.0" type="curve" smooth="yes"/>
      <point x="523.0" y="1515.0"/>
      <point x="632.0" y="1557.0"/>
      <point x="719.0" y="1742.0" type="curve"/>
      <point x="533.0" y="1742.0" type="line"/>
      <point x="502.0" y="1686.0"/>
      <point x="447.0" y="1668.0"/>
    </contour>
    <contour>
      <point x="794.0" y="2004.0" type="curve"/>
      <point x="619.0" y="2004.0" type="line"/>
      <point x="602.0" y="1960.0"/>
      <point x="582.0" y="1952.0"/>
      <point x="544.0" y="1952.0" type="curve" smooth="yes"/>
      <point x="482.0" y="1952.0"/>
      <point x="395.0" y="2004.0"/>
      <point x="289.0" y="2004.0" type="curve" smooth="yes"/>
      <point x="144.0" y="2004.0"/>
      <point x="93.0" y="1956.0"/>
      <point x="39.0" y="1796.0" type="curve"/>
      <point x="214.0" y="1796.0" type="line"/>
      <point x="231.0" y="1840.0"/>
      <point x="251.0" y="1848.0"/>
      <point x="289.0" y="1848.0" type="curve" smooth="yes"/>
      <point x="351.0" y="1848.0"/>
      <point x="438.0" y="1796.0"/>
      <point x="544.0" y="1796.0" type="curve" smooth="yes"/>
      <point x="689.0" y="1796.0"/>
      <point x="740.0" y="1844.0"/>
    </contour>
  </outline>
</glyph>
<glyph name="uni0306_tildecomb" format="2">
  <anchor x="160" y="1044.0" name="_top"/>
  <outline>
    <contour>
      <point x="213.0" y="1262.0" type="curve" smooth="yes"/>
      <point x="92.0" y="1262.0"/>
      <point x="61.0" y="1286.0"/>
      <point x="63.0" y="1336.0" type="curve"/>
      <point x="-97.0" y="1336.0" type="line"/>
      <point x="-124.0" y="1150.0"/>
      <point x="-18.0" y="1109.0"/>
      <point x="196.0" y="1109.0" type="curve" smooth="yes"/>
      <point x="399.0" y="1109.0"/>
      <point x="508.0" y="1151.0"/>
      <point x="595.0" y="1336.0" type="curve"/>
      <point x="409.0" y="1336.0" type="line"/>
      <point x="378.0" y="1280.0"/>
      <point x="323.0" y="1262.0"/>
    </contour>
    <contour>
      <point x="670.0" y="1598.0" type="curve"/>
      <point x="495.0" y="1598.0" type="line"/>
      <point x="478.0" y="1554.0"/>
      <point x="458.0" y="1546.0"/>
      <point x="420.0" y="1546.0" type="curve" smooth="yes"/>
      <point x="358.0" y="1546.0"/>
      <point x="271.0" y="1598.0"/>
      <point x="165.0" y="1598.0" type="curve" smooth="yes"/>
      <point x="20.0" y="1598.0"/>
      <point x="-31.0" y="1550.0"/>
      <point x="-85.0" y="1390.0" type="curve"/>
      <point x="90.0" y="1390.0" type="line"/>
      <point x="107.0" y="1434.0"/>
      <point x="127.0" y="1442.0"/>
      <point x="165.0" y="1442.0" type="curve" smooth="yes"/>
      <point x="227.0" y="1442.0"/>
      <point x="314.0" y="1390.0"/>
      <point x="420.0" y="1390.0" type="curve" smooth="yes"/>
      <point x="565.0" y="1390.0"/>
      <point x="616.0" y="1438.0"/>
    </contour>
  </outline>
</glyph>
<glyph name="uni0307.case" format="2">
  <anchor x="273" y="1414.0" name="_UCtop"/>
  <anchor x="388" y="1793.0" name="UCtop"/>
  <anchor x="362" y="1707.0" name="_mid"/>
  <outline>
    <contour>
      <point x="319.0" y="1550.0" type="curve" smooth="yes"/>
      <point x="510.0" y="1550.0"/>
      <point x="578.0" y="1644.0"/>
      <point x="578.0" y="1750.0" type="curve" smooth="yes"/>
      <point x="578.0" y="1822.0"/>
      <point x="524.0" y="1864.0"/>
      <point x="405.0" y="1864.0" type="curve" smooth="yes"/>
      <point x="214.0" y="1864.0"/>
      <point x="146.0" y="1770.0"/>
      <point x="146.0" y="1664.0" type="curve" smooth="yes"/>
      <point x="146.0" y="1592.0"/>
      <point x="200.0" y="1550.0"/>
    </contour>
  </outline>
</glyph>
<glyph name="uni0308.case" format="2">
  <anchor x="273" y="1414.0" name="_UCtop"/>
  <anchor x="388" y="1793.0" name="UCtop"/>
  <outline>
    <contour>
      <point x="82.0" y="1559.0" type="curve" smooth="yes"/>
      <point x="247.0" y="1559.0"/>
      <point x="299.0" y="1660.0"/>
      <point x="299.0" y="1750.0" type="curve" smooth="yes"/>
      <point x="299.0" y="1817.0"/>
      <point x="255.0" y="1855.0"/>
      <point x="169.0" y="1855.0" type="curve" smooth="yes"/>
      <point x="4.0" y="1855.0"/>
      <point x="-48.0" y="1754.0"/>
      <point x="-48.0" y="1664.0" type="curve" smooth="yes"/>
      <point x="-48.0" y="1597.0"/>
      <point x="-4.0" y="1559.0"/>
    </contour>
    <contour>
      <point x="557.0" y="1559.0" type="curve" smooth="yes"/>
      <point x="722.0" y="1559.0"/>
      <point x="774.0" y="1660.0"/>
      <point x="774.0" y="1750.0" type="curve" smooth="yes"/>
      <point x="774.0" y="1817.0"/>
      <point x="730.0" y="1855.0"/>
      <point x="644.0" y="1855.0" type="curve" smooth="yes"/>
      <point x="479.0" y="1855.0"/>
      <point x="427.0" y="1754.0"/>
      <point x="427.0" y="1664.0" type="curve" smooth="yes"/>
      <point x="427.0" y="1597.0"/>
      <point x="471.0" y="1559.0"/>
    </contour>
  </outline>
</glyph>
<glyph name="uni030B.case" format="2">
  <anchor x="273" y="1414.0" name="_UCtop"/>
  <anchor x="412" y="1870.0" name="UCtop"/>
  <outline>
    <contour>
      <point x="377.0" y="1544.0" type="line"/>
      <point x="570.0" y="1544.0" type="line"/>
      <point x="977.0" y="1796.0" type="line"/>
      <point x="1000.0" y="1870.0" type="line"/>
      <point x="613.0" y="1870.0" type="line"/>
    </contour>
    <contour>
      <point x="10.0" y="1544.0" type="line"/>
      <point x="186.0" y="1544.0" type="line"/>
      <point x="458.0" y="1807.0" type="line"/>
      <point x="477.0" y="1870.0" type="line"/>
      <point x="127.0" y="1870.0" type="line"/>
    </contour>
  </outline>
</glyph>
<glyph name="uni0311.case" format="2">
  <anchor x="273" y="1414.0" name="_UCtop"/>
  <anchor x="412" y="1870.0" name="UCtop"/>
  <outline>
    <contour>
      <point x="355.0" y="1643.0" type="curve" smooth="yes"/>
      <point x="464.0" y="1643.0"/>
      <point x="498.0" y="1616.0"/>
      <point x="498.0" y="1544.0" type="curve"/>
      <point x="661.0" y="1544.0" type="line"/>
      <point x="700.0" y="1757.0"/>
      <point x="628.0" y="1870.0"/>
      <point x="399.0" y="1870.0" type="curve" smooth="yes"/>
      <point x="185.0" y="1870.0"/>
      <point x="67.0" y="1789.0"/>
      <point x="-35.0" y="1544.0" type="curve"/>
      <point x="152.0" y="1544.0" type="line"/>
      <point x="196.0" y="1616.0"/>
      <point x="247.0" y="1643.0"/>
    </contour>
  </outline>
</glyph>
<glyph name="uni0312.case" format="2">
  <anchor x="273" y="1414.0" name="_UCtop"/>
  <anchor x="412" y="1870.0" name="UCtop"/>
  <outline>
    <contour>
      <point x="450.0" y="1533.0"/>
      <point x="511.0" y="1603.0"/>
      <point x="511.0" y="1668.0" type="curve" smooth="yes"/>
      <point x="511.0" y="1684.0"/>
      <point x="417.0" y="1692.0"/>
      <point x="417.0" y="1747.0" type="curve" smooth="yes"/>
      <point x="417.0" y="1782.0"/>
      <point x="442.0" y="1812.0"/>
      <point x="538.0" y="1821.0" type="curve"/>
      <point x="556.0" y="1925.0" type="line"/>
      <point x="283.0" y="1910.0"/>
      <point x="199.0" y="1786.0"/>
      <point x="199.0" y="1667.0" type="curve" smooth="yes"/>
      <point x="199.0" y="1582.0"/>
      <point x="249.0" y="1533.0"/>
      <point x="342.0" y="1533.0" type="curve" smooth="yes"/>
    </contour>
  </outline>
</glyph>
<glyph name="uni20A6.1" format="2">
  <advance width="1550"/>
  <outline>
    <contour>
      <point x="1555.0" y="1267.0" type="line"/>
      <point x="1721.0" y="1314.0" type="line"/>
      <point x="1752.0" y="1414.0" type="line"/>
      <point x="1233.0" y="1414.0" type="line"/>
      <point x="1202.0" y="1314.0" type="line"/>
      <point x="1339.0" y="1267.0" type="line"/>
      <point x="1029.0" y="232.0" type="line"/>
      <point x="1093.0" y="310.0" type="line"/>
      <point x="1003.0" y="1414.0" type="line"/>
      <point x="376.0" y="1414.0" type="line"/>
      <point x="346.0" y="1314.0" type="line"/>
      <point x="462.0" y="1247.0" type="line"/>
      <point x="125.0" y="147.0" type="line"/>
      <point x="-42.0" y="100.0" type="line"/>
      <point x="-72.0" y="0.0" type="line"/>
      <point x="444.0" y="0.0" type="line"/>
      <point x="473.0" y="100.0" type="line"/>
      <point x="335.0" y="147.0" type="line"/>
      <point x="686.0" y="1308.0" type="line"/>
      <point x="610.0" y="1260.0" type="line"/>
      <point x="710.0" y="0.0" type="line"/>
      <point x="1168.0" y="0.0" type="line"/>
    </contour>
    <contour>
      <point x="1222.0" y="451.0" type="line"/>
      <point x="1518.0" y="451.0" type="line"/>
      <point x="1571.0" y="626.0" type="line"/>
      <point x="1279.0" y="626.0" type="line"/>
    </contour>
    <contour>
      <point x="377.0" y="626.0" type="line"/>
      <point x="45.0" y="626.0" type="line"/>
      <point x="-8.0" y="451.0" type="line"/>
      <point x="317.0" y="451.0" type="line"/>
    </contour>
    <contour>
      <point x="1339.0" y="811.0" type="line"/>
      <point x="1628.0" y="811.0" type="line"/>
      <point x="1681.0" y="986.0" type="line"/>
      <point x="1396.0" y="986.0" type="line"/>
    </contour>
    <contour>
      <point x="500.0" y="986.0" type="line"/>
      <point x="155.0" y="986.0" type="line"/>
      <point x="102.0" y="811.0" type="line"/>
      <point x="440.0" y="811.0" type="line"/>
    </contour>
  </outline>
</glyph>
<glyph name="uni20B1.lf" format="2">
  <advance width="1694"/>
  <outline>
    <contour>
      <point x="1653.0" y="759.0" type="line"/>
      <point x="205.0" y="759.0" type="line"/>
      <point x="151.0" y="584.0" type="line"/>
      <point x="1599.0" y="584.0" type="line"/>
    </contour>
    <contour>
      <point x="1763.0" y="1119.0" type="line"/>
      <point x="315.0" y="1119.0" type="line"/>
      <point x="262.0" y="944.0" type="line"/>
      <point x="1709.0" y="944.0" type="line"/>
    </contour>
    <contour>
      <point x="526.0" y="1241.0" type="line"/>
      <point x="201.0" y="172.0" type="line"/>
      <point x="39.0" y="100.0" type="line"/>
      <point x="9.0" y="0.0" type="line"/>
      <point x="799.0" y="0.0" type="line"/>
      <point x="828.0" y="100.0" type="line"/>
      <point x="699.0" y="173.0" type="line"/>
      <point x="1078.0" y="1414.0" type="line"/>
      <point x="440.0" y="1414.0" type="line"/>
      <point x="411.0" y="1314.0" type="line"/>
    </contour>
    <contour>
      <point x="910.0" y="660.0" type="curve" smooth="yes"/>
      <point x="730.0" y="660.0" type="line"/>
      <point x="504.0" y="390.0" type="line"/>
      <point x="946.0" y="390.0" type="line" smooth="yes"/>
      <point x="1358.0" y="390.0"/>
      <point x="1536.0" y="740.0"/>
      <point x="1536.0" y="1064.0" type="curve" smooth="yes"/>
      <point x="1536.0" y="1300.0"/>
      <point x="1405.0" y="1414.0"/>
      <point x="1123.0" y="1414.0" type="curve" smooth="yes"/>
      <point x="841.0" y="1414.0" type="line"/>
      <point x="874.0" y="1129.0" type="line"/>
      <point x="1026.0" y="1129.0" type="line" smooth="yes"/>
      <point x="1094.0" y="1129.0"/>
      <point x="1125.0" y="1101.0"/>
      <point x="1125.0" y="1027.0" type="curve" smooth="yes"/>
      <point x="1125.0" y="868.0"/>
      <point x="1052.0" y="660.0"/>
    </contour>
  </outline>
</glyph>
<glyph name="uni20B2.lf.1" format="2">
  <advance width="1489"/>
  <outline>
    <contour>
      <point x="640.0" y="360.0" type="curve" smooth="yes"/>
      <point x="640.0" y="781.0"/>
      <point x="794.0" y="1196.0"/>
      <point x="1096.0" y="1196.0" type="curve" smooth="yes"/>
      <point x="1246.0" y="1196.0"/>
      <point x="1317.0" y="1013.0"/>
      <point x="1344.0" y="1013.0" type="curve" smooth="yes"/>
      <point x="1464.0" y="1013.0"/>
      <point x="1554.0" y="1100.0"/>
      <point x="1554.0" y="1223.0" type="curve" smooth="yes"/>
      <point x="1554.0" y="1373.0"/>
      <point x="1411.0" y="1444.0"/>
      <point x="1089.0" y="1444.0" type="curve" smooth="yes"/>
      <point x="491.0" y="1444.0"/>
      <point x="148.0" y="977.0"/>
      <point x="148.0" y="476.0" type="curve" smooth="yes"/>
      <point x="148.0" y="155.0"/>
      <point x="305.0" y="-30.0"/>
      <point x="668.0" y="-30.0" type="curve" smooth="yes"/>
      <point x="873.0" y="-30.0"/>
      <point x="1053.0" y="16.0"/>
      <point x="1265.0" y="122.0" type="curve"/>
      <point x="1305.0" y="255.0" type="line"/>
      <point x="1212.0" y="255.0" type="line"/>
      <point x="1287.0" y="498.0" type="line"/>
      <point x="1393.0" y="557.0" type="line"/>
      <point x="1429.0" y="673.0" type="line"/>
      <point x="819.0" y="673.0" type="line"/>
      <point x="784.0" y="557.0" type="line"/>
      <point x="843.0" y="498.0" type="line"/>
      <point x="696.0" y="16.0" type="line"/>
      <point x="1099.0" y="306.0" type="line"/>
      <point x="927.0" y="215.0"/>
      <point x="863.0" y="198.0"/>
      <point x="773.0" y="198.0" type="curve" smooth="yes"/>
      <point x="679.0" y="198.0"/>
      <point x="640.0" y="234.0"/>
    </contour>
    <contour>
      <point x="1193.0" y="1305.0" type="line"/>
      <point x="1298.0" y="1650.0" type="line"/>
      <point x="1114.0" y="1650.0" type="line"/>
      <point x="1009.0" y="1305.0" type="line"/>
    </contour>
    <contour>
      <point x="537.0" y="-237.0" type="line"/>
      <point x="721.0" y="-237.0" type="line"/>
      <point x="817.0" y="78.0" type="line"/>
      <point x="646.0" y="119.0" type="line"/>
    </contour>
  </outline>
</glyph>
<glyph name="uni20B9.lf" format="2">
  <advance width="1398"/>
  <outline>
    <contour>
      <point x="1459.0" y="1070.0" type="line"/>
      <point x="290.0" y="1070.0" type="line"/>
      <point x="236.0" y="895.0" type="line"/>
      <point x="1405.0" y="895.0" type="line"/>
    </contour>
    <contour>
      <point x="1246.0" y="1022.0" type="curve" smooth="yes"/>
      <point x="1246.0" y="1134.0"/>
      <point x="1185.0" y="1221.0"/>
      <point x="1047.0" y="1249.0" type="curve"/>
      <point x="1047.0" y="1239.0" type="line"/>
      <point x="1511.0" y="1239.0" type="line"/>
      <point x="1564.0" y="1414.0" type="line"/>
      <point x="395.0" y="1414.0" type="line"/>
      <point x="332.0" y="1210.0" type="line"/>
      <point x="706.0" y="1210.0" type="line" smooth="yes"/>
      <point x="783.0" y="1210.0"/>
      <point x="817.0" y="1184.0"/>
      <point x="817.0" y="1111.0" type="curve" smooth="yes"/>
      <point x="817.0" y="916.0"/>
      <point x="737.0" y="755.0"/>
      <point x="546.0" y="755.0" type="curve" smooth="yes"/>
      <point x="193.0" y="755.0" type="line"/>
      <point x="131.0" y="552.0" type="line"/>
      <point x="413.0" y="552.0" type="line" smooth="yes"/>
      <point x="548.0" y="552.0"/>
      <point x="558.0" y="530.0"/>
      <point x="554.0" y="415.0" type="curve" smooth="yes"/>
      <point x="547.0" y="195.0" type="line" smooth="yes"/>
      <point x="541.0" y="-9.0"/>
      <point x="622.0" y="-44.0"/>
      <point x="1078.0" y="0.0" type="curve"/>
      <point x="1135.0" y="188.0" type="line"/>
      <point x="1029.0" y="188.0"/>
      <point x="1020.0" y="204.0"/>
      <point x="1022.0" y="317.0" type="curve" smooth="yes"/>
      <point x="1024.0" y="434.0" type="line" smooth="yes"/>
      <point x="1027.0" y="601.0"/>
      <point x="974.0" y="663.0"/>
      <point x="733.0" y="678.0" type="curve"/>
      <point x="765.0" y="663.0" type="line"/>
      <point x="1071.0" y="679.0"/>
      <point x="1246.0" y="837.0"/>
    </contour>
  </outline>
</glyph>
<glyph name="uni20BA.lf" format="2">
  <advance width="1499"/>
  <outline>
    <contour>
      <point x="1134.0" y="-103.0" type="line"/>
      <point x="1449.0" y="565.0" type="line"/>
      <point x="1245.0" y="565.0" type="line"/>
      <point x="856.0" y="110.0" type="line"/>
      <point x="1055.0" y="256.0" type="line"/>
      <point x="451.0" y="256.0" type="line"/>
      <point x="365.0" y="0.0" type="line"/>
      <point x="911.0" y="0.0" type="line"/>
      <point x="978.0" y="-103.0" type="line"/>
    </contour>
    <contour>
      <point x="1029.0" y="1242.0" type="line"/>
      <point x="1191.0" y="1314.0" type="line"/>
      <point x="1221.0" y="1414.0" type="line"/>
      <point x="443.0" y="1414.0" type="line"/>
      <point x="414.0" y="1314.0" type="line"/>
      <point x="529.0" y="1241.0" type="line"/>
      <point x="204.0" y="172.0" type="line"/>
      <point x="42.0" y="100.0" type="line"/>
      <point x="12.0" y="0.0" type="line"/>
      <point x="649.0" y="0.0" type="line"/>
    </contour>
    <contour>
      <point x="543.0" y="388.0" type="line"/>
      <point x="1150.0" y="664.0" type="line"/>
      <point x="1210.0" y="858.0" type="line"/>
      <point x="621.0" y="591.0" type="line"/>
      <point x="536.0" y="649.0" type="line"/>
      <point x="108.0" y="451.0" type="line"/>
      <point x="49.0" y="257.0" type="line"/>
      <point x="458.0" y="446.0" type="line"/>
    </contour>
    <contour>
      <point x="677.0" y="737.0" type="line"/>
      <point x="1253.0" y="1000.0" type="line"/>
      <point x="1313.0" y="1195.0" type="line"/>
      <point x="755.0" y="939.0" type="line"/>
      <point x="670.0" y="997.0" type="line"/>
      <point x="211.0" y="787.0" type="line"/>
      <point x="152.0" y="592.0" type="line"/>
      <point x="592.0" y="795.0" type="line"/>
    </contour>
  </outline>
</glyph>
<glyph name="uni20BD.lf" format="2">
  <advance width="1546"/>
  <outline>
    <contour>
      <point x="1359.0" y="526.0" type="line"/>
      <point x="123.0" y="526.0" type="line"/>
      <point x="69.0" y="351.0" type="line"/>
      <point x="1305.0" y="351.0" type="line"/>
    </contour>
    <contour>
      <point x="530.0" y="1241.0" type="line"/>
      <point x="205.0" y="172.0" type="line"/>
      <point x="33.0" y="100.0" type="line"/>
      <point x="3.0" y="0.0" type="line"/>
      <point x="813.0" y="0.0" type="line"/>
      <point x="842.0" y="100.0" type="line"/>
      <point x="703.0" y="173.0" type="line"/>
      <point x="1083.0" y="1414.0" type="line"/>
      <point x="434.0" y="1414.0" type="line"/>
      <point x="405.0" y="1314.0" type="line"/>
    </contour>
    <contour>
      <point x="1035.0" y="881.0" type="curve" smooth="yes"/>
      <point x="233.0" y="886.0" type="line"/>
      <point x="180.0" y="711.0" type="line"/>
      <point x="1147.0" y="711.0" type="line" smooth="yes"/>
      <point x="1465.0" y="711.0"/>
      <point x="1632.0" y="882.0"/>
      <point x="1632.0" y="1139.0" type="curve" smooth="yes"/>
      <point x="1632.0" y="1302.0"/>
      <point x="1543.0" y="1414.0"/>
      <point x="1302.0" y="1414.0" type="curve" smooth="yes"/>
      <point x="873.0" y="1414.0" type="line"/>
      <point x="795.0" y="1157.0" type="line"/>
      <point x="1111.0" y="1157.0" type="line" smooth="yes"/>
      <point x="1161.0" y="1157.0"/>
      <point x="1179.0" y="1126.0"/>
      <point x="1179.0" y="1078.0" type="curve" smooth="yes"/>
      <point x="1179.0" y="957.0"/>
      <point x="1117.0" y="880.0"/>
    </contour>
  </outline>
</glyph>
